<?xml version="1.0" standalone="no"?>
<!DOCTYPE svg PUBLIC "-//W3C//DTD SVG 1.1//EN" "http://www.w3.org/Graphics/SVG/1.1/DTD/svg11.dtd" >
<svg xmlns="http://www.w3.org/2000/svg">
<metadata></metadata>
<defs>
<font id="brighterregular" horiz-adv-x="1705" >
<font-face units-per-em="2048" ascent="1536" descent="-512" />
<missing-glyph horiz-adv-x="1024" />
<glyph horiz-adv-x="2048" />
<glyph horiz-adv-x="2048" />
<glyph unicode="&#xd;" horiz-adv-x="1024" />
<glyph unicode=" "  horiz-adv-x="1024" />
<glyph unicode="&#x09;" horiz-adv-x="1024" />
<glyph unicode="&#xa0;" horiz-adv-x="1024" />
<glyph unicode="0" d="M94 766q0 158 60.5 297t164 243.5t241.5 165t296 60.5t297 -60.5t243.5 -165t165 -243.5t60.5 -297t-60.5 -296t-165 -241.5t-243.5 -164t-297 -60.5t-296 60.5t-241.5 164t-164 241.5t-60.5 296zM412 846q0 -53 21.5 -101.5t55.5 -89.5q0 23 11 35q6 14 14 23l195 196 l-58 62l15 18l176 -180q20 -16 47 -16q12 0 26.5 5t26.5 17q20 23 21.5 51.5t-17.5 44.5l-123 125l-6 6q-10 6 -20.5 13.5t-22.5 11.5q-47 27 -110 27q-51 0 -97.5 -18.5t-81.5 -55.5q-35 -35 -54 -81t-19 -93zM514 659q0 -23 16 -34q14 -18 39 -19q23 0 33 15l201 198 l-76 74l-199 -195q-14 -16 -14 -39zM610 567q0 -10 2 -21t11 -18q20 -14 41 -14q16 0 32 12l209 211l21 -24l-205 -207q-16 -14 -16 -37t16 -37q10 -6 19.5 -11t19.5 -5t19 5t16 9l206 211l21 -23l-209 -206q-14 -16 -14 -35q4 -23 16 -35q8 -10 17.5 -14t19.5 -4 q23 0 37 16l215 211q25 27 52.5 52.5t49.5 51.5q80 80 80 191q0 47 -18.5 93t-53.5 81q-72 74 -176 74q-49 0 -93 -16.5t-79 -51.5l97 -96q25 -29 23.5 -66t-30.5 -65q-14 -12 -31.5 -22.5t-37.5 -10.5q-16 0 -32.5 9t-27.5 22l-6 2l-198 -197q-16 -16 -13 -35z" />
<glyph unicode="A" d="M115 565l12 4v-4l35 15l-2 4l10 4l12 -29l-10 -4l-2 6l-35 -14l4 -12l11 4l6 -15l-21 -8zM143 500l11 4l2 -6l34 16l-4 6l11 6l14 -28l-10 -6l-2 6l-35 -17l4 -6l-10 -4zM180 428q-5 9 -5 17q0 14 15 24q12 8 24.5 5t18.5 -13q4 -10 3.5 -14.5t-0.5 -6.5l6 2l8 -12 l-23 -12l-8 14q8 6 4 14q-8 12 -20 5q-12 -8 -6 -21q2 -6 8 -6l2 2l-2 6l8 4l16 -26l-8 -4l-2 2l-18 -11l-11 17l5 4q-8 0 -15 10zM213 377l10 8l2 -4l31 22l-4 5l8 6l21 -25l-11 -6l-2 4l-10 -8l10 -14l11 8l-5 4l11 8l18 -25l-8 -8l-4 6l-31 -24l4 -4l-8 -6l-18 24l8 6 l4 -4l10 8l-12 15l-10 -8l4 -5l-9 -8zM213 614q8 4 14 7.5t15 7.5q31 -98 90 -180t139 -142.5t177 -94.5t206 -34q106 0 203.5 34t177.5 93.5t139.5 141t89.5 178.5q8 -6 16.5 -8.5t12.5 -6.5q-29 -100 -91.5 -185t-147.5 -146.5t-187 -96.5t-213 -35q-113 0 -214 35 t-185 97.5t-146.5 147.5t-95.5 187zM262 1141q43 78 104.5 143.5t138.5 111.5t165 71.5t184 25.5q100 0 191.5 -27.5t170 -78t141 -120t103.5 -153.5q-8 -4 -15 -7t-13 -7q-39 80 -98.5 146.5t-134.5 113.5t-163 73.5t-182 26.5q-186 0 -335.5 -93t-231.5 -247 q-6 4 -12.5 10.5t-12.5 10.5zM279 299l8 8l6 -6l26 27l-6 4l-8 -6l-10 10l16 14l45 -45l-16 -16l-10 10l8 8l-6 6l-27 -26l6 -6l-8 -9zM307 543q-7 16 -7 29q0 27 32 42l37 21l-4 8l18 10l27 -47l-21 -10l-4 8l-31 -16q-18 -10 -21 -16.5t1 -14.5q4 -6 10 -8t27 8l30 16 l-4 9l19 10l24 -43l-20 -10l-4 8l-35 -19q-20 -12 -36 -12q-24 0 -38 27zM328 250l6 8l4 -2l24 27l-4 4l7 8l45 -37l-13 -14l-12 12l4 4l-12 10l-6 -8l12 -12l-6 -8l-15 12l-8 -12l11 -9l6 7l12 -13l-12 -14zM348 1155l37 49q24 33 47 15q16 -12 12 -29q18 14 35 2 q14 -10 14.5 -24t-14.5 -33l-37 -52l-18 15l6 6l-59 45l-6 -8zM387 201l6 8l4 -2l21 31l-4 4l6 8l22 -14l2 -39l13 16l-6 4l6 8l24 -16l-6 -8l-6 4l-27 -41l-18 10l-2 41l-10 -18l6 -4l-6 -9zM387 430l16 16l7 -8l51 54l-8 6l16 16l39 -39q20 -20 19 -33.5t-11 -23.5 q-12 -12 -26.5 -9t-28.5 15l-8 10l-19 -18l6 -8l-14 -17zM393 1176l19 -15l6 8q8 8 -2 17q-10 6 -17 -2zM418 698q4 4 14 7.5t14 7.5q12 -37 31 -76q2 0 13.5 6t19.5 12q6 6 11 13.5t11 11.5q4 4 5.5 4t5.5 2q6 2 6 4v2v4l-4 4h-2q-4 0 -6 2l-5 5q-2 2 -2 4l2 2l5 2q2 0 4 1 t4 1h2q0 2 2 4q0 2 4 10l4 2q8 0 8 -2q4 -4 4 -6t1 -3t1 -3v-2q2 -2 4 -2t3.5 -1t3.5 -1q4 -4 6 -4q0 -4 -2 -4q-4 -4 -6 -5q-4 -2 -9 -2q-2 0 -2 -2v-2v-2q0 -4 6 -6q6 -4 17.5 -8t21.5 -14q16 -12 23 -19q2 -2 3 -4t3 -4q4 -2 8 -10.5t11 -8.5q8 0 8 -2t8 -2q16 0 29 4 q4 2 9 3.5t7 5.5l2 2q0 2 1 3t1 5q0 2 -2 3t-2 5q-2 4 -1 6t1 4q6 6 6 7q6 4 14 2l5 -5q4 -4 4 -8v-6v-4l4 -2q12 -12 28 -14q8 -4 16.5 -4h14.5q4 0 7 2t7 4t6.5 2t6.5 4q6 4 13 8t17 10q4 2 8.5 4t8.5 4q4 4 9 7.5t9 7.5l17 8q4 2 8 2q0 2 -2 4q-4 4 -4 10v13q0 4 8 8 q4 2 8 2t6 -2q4 -4 6 -8q0 -10 -2 -17q-2 -6 -2 -10h6q4 0 15 -6q6 -4 11 -13.5t13 -15.5q4 -4 10.5 -7t10.5 -7h6h2h2l4 2q14 4 25 16q4 2 4 3t2 3q0 2 3 14.5t11 22.5q2 4 4 4t4 2q2 0 4 3v4v6q-4 2 -6 6q-4 8 -2 18q2 2 3 4t3 5l2 2q2 2 5 2q6 0 10 -2q-4 4 -2 3t6 -6.5 t7 -12.5t-3 -15l-4 -4q-2 0 -2 -8h12q6 0 12 -7q8 -8 15.5 -20t15.5 -23q6 -10 12.5 -16t10.5 -10l10 -10l6 -5q0 -4 -2 -6q-6 -6 -10 -4q-6 0 -8 6q-2 4 -2 9q-6 8 -15 16q-6 6 -13 12t-11 10q-4 2 -9 -6q-2 -4 -2 -8v-8q0 -4 -1 -9t1 -10q2 -10 4.5 -18t2.5 -18 q0 -6 -1.5 -10.5t-1.5 -8.5q-2 -4 -2 -6q-2 -4 -2 -8q-2 -4 -2 -19q-2 -14 2 -24q98 80 140 203q4 -4 13 -7.5t13 -7.5q-23 -68 -65.5 -125t-101 -99t-128 -66.5t-143.5 -24.5q-76 0 -144.5 24.5t-126 67.5t-100.5 101.5t-65 125.5zM428 1149l23 -16l8 10q8 12 -4 20t-19 -4 zM451 1044q29 53 70.5 97.5t94 77t112.5 50t126 17.5q68 0 130.5 -19.5t116.5 -53t97 -82t72 -103.5q-4 -4 -13.5 -8t-13.5 -8q-53 109 -155.5 176t-231.5 67q-123 0 -224.5 -63.5t-154.5 -165.5q-4 4 -13 9t-13 9zM451 1278l43 33q23 18 36 15t21 -13q14 -16 -4 -35 q18 12 33 -6q6 -8 8 -6t0 6l-2 4l8 8l6 -8q6 -8 6 -17.5t-10 -19.5q-27 -18 -45 6q-10 16 -25 4l17 -20l8 6l12 -16l-43 -33l-12 16l8 6l-45 58l-8 -4zM465 446l4 -4q12 -12 23 -2q10 10 0 21l-7 6zM483 627q14 -27 35 -54q0 4 1 7.5t1 7.5q0 10 5 22.5t5 22.5q0 6 -4 10h-4 h-6l-4 -2q-2 0 -6 -4q-2 -2 -6 -2zM496 131l6 10l4 -2l29 29l-5 2l5 10l32 -14l-4 -51l6 -4l-4 -11l-35 17l5 10l8 -4v6l-17 8l-4 -4l6 -4l-4 -10zM498 1288l18 -22l6 4q10 10 4 20q-10 12 -20 2zM532 145l13 -6l2 21zM588 512q16 -10 34.5 -20.5t41.5 -16.5q12 -4 25 -4h26 q4 17 4 31q0 20 2 30t4 19.5t2 13.5v19q-2 4 -2 6t-2 6t-4 6q-6 8 -17 4q-12 -4 -16 -4l-24 4h-7q-6 0 -10 4q-4 2 -4 8q-2 2 -2 4.5t-2 4.5q0 2 -6 8q-4 2 -7 3t-8 3q-18 8 -21 -2t-3 -16q-2 -10 -1 -23.5t3 -26.5q0 -10 -1 -17t-1 -13v-13zM592 1372l51 23l8 -21l-10 -4 l31 -65l8 4l10 -21l-51 -22l-10 20l10 4l-29 68l-10 -4zM618 82l3 10h6l10 35l-6 2l4 10l29 -8l-5 -10l-4 2l-10 -37l12 -2l2 10l17 -4l-6 -22zM631 258l4 23l12 -5l41 66l-8 2l6 21l62 -17l4 -100l12 -2l-6 -23l-64 19l4 20l17 -4v12l-35 9l-6 -11l14 -2l-6 -22zM688 63 l2 13l6 -2l6 37h-6l4 12l31 -6l-2 -13l-6 2l-8 -36h6l-2 -13zM692 297l21 -6v39zM705 1356q-1 7 -1 13q0 19 9 33q12 19 30 23t25.5 -1t9.5 -7l2 13l25 4l8 -48l-29 -6q-6 19 -22 19q-10 -4 -15.5 -14.5t-3.5 -22.5q4 -12 11.5 -20.5t17.5 -4.5q8 0 14 11l-2 6l-10 -2l-2 18 l55 10l2 -18h-6l6 -41l-32 -6l-6 8q-4 -12 -25 -16q-23 -4 -40 9t-21 40zM727 471q16 0 29.5 1t23.5 1v4q-8 12 -14 25q0 4 -1 6t-1 6l-6 10q-8 4 -13 0q-4 -4 -4 -6t-2 -6t-2 -8q-2 -2 -4 -6q-4 -8 -4 -17q-2 -2 -2 -10zM737 53l2 13h6l5 36h-7l2 11l56 -7l-2 -18l-17 2v8 h-12l-2 -14l16 -2v-10l-18 2l-2 -13h10l-2 -12zM766 592l4 -8t4 -9q0 -4 1 -5t1 -5q2 -8 0 -15t0 -13q0 -8 8.5 -31t12.5 -33q14 0 25.5 1t21.5 1q16 0 32.5 -1t28.5 -3h2q2 5 2 21q2 8 -2 20t-6 25v14q0 4 2 6v10v11.5t2 15.5q0 10 1 18.5t1 16.5q0 -6 0 8t-8 12t-25 -10 q-8 -4 -14 -10l-14 -6q-2 -2 -2 -5q-2 -2 -2 -4t-4 -4t-7.5 0t-7.5 2t-12 -1t-18 -1h-7q-6 0 -11 1t-9 -11v-8zM813 47v10h6v37h-4v12l57 -2l-2 -18h-16v8h-14v-12h18v-12l-18 2v-15h14v9l16 -3v-18zM854 1321l4 22l8 -2l8 72l-8 2l2 23l54 -8l-2 -21h-11l-2 -25l31 -4l2 25 l-8 2l2 23l53 -7l-2 -22h-10l-8 -72h10l-4 -22l-53 6l2 22l10 -2l4 25l-33 4l-2 -25l10 -2l-4 -20zM915 106l31 5l2 -11l-4 -2l4 -12q0 -2 2 -7t2 -9l2 2q-2 2 -1 8t1 12l2 21l21 2l8 -23q2 -4 3 -8t3 -8v16l2 14h-6v11l27 4l2 -10l-6 -2l-6 -50l-23 -4l-8 19q-4 8 -4 10 q0 -2 -1 -5t-1 -5l-2 -21l-23 -4l-18 47l-6 -2zM926 469q10 -2 20 -3t21 -1q-2 4 -2 6t-2 6q-2 10 -7.5 17.5t-9.5 17.5q0 4 -1 5t-1 5q0 2 -1 2t-1 2v2h-2q-4 0 -6 -4q-4 -8 -4 -16q-2 -6 -2 -8v-11v-16q-2 -2 -2 -4zM930 342l51 12l6 -20l-8 -4l16 -70l21 6l-4 21l26 6 l11 -43l-91 -23l-6 23l11 2l-19 70l-8 -3zM971 618q2 -8 4 -17t2 -19q0 -25 -2 -35q-2 -8 -2 -17v-6q0 -4 -1 -5t1 -5q0 -6 3 -10t5 -12q0 -8 1 -15.5t-1 -13.5q18 -2 36.5 -3t35.5 -1q10 4 18.5 9t18.5 11v10.5t-3 12.5q0 8 -2 17l-4 18q-2 10 -4 16l-4 12q-2 8 -2 13.5 v7.5q0 10 2 25.5t4 25.5v8v4l-2 2h-6q-4 -4 -10 -9t-10 -9q-4 -2 -6.5 -3t-6.5 -3t-6 -2q0 -2 -2 -4q-4 -4 -6 -5q-4 0 -6 2t-2 5q-6 2 -13 6q-12 8 -20 8q-13 2 -13 -4zM1016 1290l8 21l12 -4l29 65l-12 6l-9 -20l-22 10l16 41l103 -45l-17 -41l-22 10l8 21l-12 4l-29 -66 l12 -6l-8 -20zM1024 125l31 8l2 -12l-6 -2l10 -35l6 2l2 -12l-31 -8l-2 12h4l-8 37l-6 -2zM1067 135l59 21l9 -21l-13 -4l-4 10l-8 -2l12 -37l8 4l5 -12l-35 -10l-4 10l8 2l-12 35l-9 -2l4 -10l-12 -4zM1071 387l47 27l12 -21l-10 -4l35 -63l10 4l11 -19l-50 -28l-10 20l8 4 l-34 66l-9 -6zM1102 487q4 4 12 9q0 8 -4 12h-4h-4v-12v-9zM1114 1245l14 17l9 -7l45 58l-8 6l14 16l78 -61l-23 -29l-22 17l8 12l-21 16l-14 -18l25 -19l-15 -18l-24 20l-17 -22l21 -16l10 12l23 -19l-23 -28zM1139 162l28 12l4 -10l-4 -2l4 -12l17 8l-4 12l-6 -4l-4 10 l26 14l6 -10l-6 -2l17 -35l6 4l4 -10l-29 -14l-4 10l4 2l-4 12l-16 -8l4 -12l6 4l4 -10l-27 -15l-6 11l6 2l-16 35l-4 -2zM1163 442l74 70l25 -27l-21 -20l-10 10l-19 -18l21 -21l22 23l15 -17l-23 -22l15 -14l12 12l16 -17l-45 -43l-16 17l8 6l-51 53l-6 -8zM1208 1167 l19 13l6 -9l59 43l-4 9l17 12l28 -39l-26 -70l32 25l-8 8l19 12l28 -41l-16 -12l-6 8l-78 -55l-23 31l29 72l-35 -25l8 -10l-18 -13zM1253 223l31 21l41 -31l6 4l6 -10l-30 -21l-7 9l7 6l-4 2l-17 -10l2 -7l6 4l6 -8l-24 -18l-6 10l4 4l-10 37l-2 -2zM1266 549l49 88l33 -19 l-15 -24l-14 6l-12 -22l20 -11l16 27l19 -10l-16 -29l24 -12l12 22l-12 8l14 25l33 -18l-49 -88l-20 10l6 10l-64 35l-6 -8zM1278 221l6 -18l10 8zM1349 292q3 10 7 13q12 8 20 6l-4 6l12 13l15 -17l-13 -12q-4 8 -16 0q-6 -6 -2 -8q4 -4 20.5 6t26.5 0q10 -14 -6 -31 q-8 -8 -20 -8l4 -4l-13 -12l-14 16l12 12q8 -8 15 2q8 4 4 9q-4 2 -18.5 -8.5t-26.5 1.5q-4 4 -4 10q0 3 1 6zM1395 340l22 29l31 -15l-18 29l22 27l8 -7l-2 -4l29 -24l4 4l8 -6l-20 -23l-9 6l5 4l-23 19l-4 2q2 -2 4 -5t4 -3l19 -29l-13 -16l-32 14q-2 0 -11 4l27 -20l2 4 l10 -8l-16 -21l-8 8l2 4l-29 23l-4 -4zM1458 422l19 27l8 -7l-2 -4l30 -20l5 4l8 -6l-17 -27l-10 6l4 6l-30 21l-5 -6zM1485 461l14 26l10 -6l-4 -4l33 -18l6 12l-10 4l8 14l21 -10l-27 -47l-10 6l4 4l-33 19l-4 -4zM1516 520l22 53l18 -8l-6 -14l-8 2l-6 -14l12 -4l6 16 l11 -4l-6 -17l12 -6l6 15l-8 4l6 14l18 -8l-22 -51l-10 4l2 4l-35 16l-2 -6z" />
<glyph unicode="B" d="M182 719q0 139 53.5 262t144.5 214t213 144.5t261 53.5t262 -53.5t214 -144.5t144.5 -214t53.5 -262t-53.5 -262t-144.5 -214t-214 -144.5t-262 -53.5t-261 53.5t-213 144.5t-144.5 214t-53.5 262zM440 752l174 -349q10 -14 27 -14h434q16 0 27 14l172 349q4 6 4 13 t-4 15q-10 14 -25 15h-164l-163 243q-8 12 -18 12q-7 0 -15 -6q-20 -10 -8 -32l145 -217h-338l146 217q14 23 -7 32q-7 6 -14 6q-10 0 -18 -12l-164 -243h-164q-14 0 -25 -15q-6 -7 -6 -15q0 -6 4 -13zM514 735h119l10 -43h-108zM551 664h100l15 -58h-86zM594 575h80l14 -57 h-65zM631 766q0 18 20 18t21 -18q-1 -21 -21 -21t-20 21zM637 489h57l11 -43h-46zM664 735h110l2 -43h-102zM680 664h100l4 -58h-88zM702 575h84l5 -57h-74zM725 489h70l2 -43h-62zM803 735h110l-4 -43h-102zM809 664h98l-4 -58h-90zM815 575h84l-4 -57h-74zM823 489h70 l-4 -43h-62zM918 446l4 43h69l-10 -43h-63zM924 518l6 57h84l-15 -57h-75zM932 606l4 58h98l-14 -58h-88zM938 692l4 43h111l-11 -43h-104zM1010 446l12 43h57l-22 -43h-47zM1028 518l14 57h80l-28 -57h-66zM1047 764q0 20 18 20q20 0 20 -20q0 -19 -20 -19q-18 0 -18 19z M1051 606l14 58h100l-28 -58h-86zM1071 692l12 43h119l-22 -43h-109z" />
<glyph unicode="C" d="M182 721q0 139 53.5 262t144.5 214t214 144.5t262 53.5t261 -53.5t213 -144.5t144.5 -214t53.5 -262t-53.5 -262t-144.5 -214t-213 -144.5t-261 -53.5t-262 53.5t-214 144.5t-144.5 214t-53.5 262zM639 523.5q0 -21.5 16 -38.5q16 -16 37 -16t37 16l119 133l117 -133 q16 -16 36.5 -16t36.5 16q17 17 17 39q0 21 -17 37l-120 139l120 140q17 17 17 38q0 20 -17 35q-16 17 -36 17h-2q-20 0 -35 -17l-117 -133l-119 133q-17 17 -37 17h-1q-20 0 -36 -17q-16 -16 -16 -36.5t16 -36.5l121 -140l-121 -139q-16 -16 -16 -37.5z" />
<glyph unicode="D" d="M182 719q0 139 53.5 262t144.5 214t214 144.5t262 53.5t261 -53.5t213 -144.5t144.5 -214t53.5 -262t-53.5 -261t-144.5 -213t-213 -144.5t-261 -53.5t-262 53.5t-214 144.5t-144.5 213t-53.5 261zM461 786q0 -47 18.5 -89t52.5 -76q0 16 7 32q8 12 12 17l174 176l-53 53 l14 14l156 -155q16 -16 39 -17q29 1 47 21q18 18 19 43.5t-15 42.5l-109 108l-4 5q-10 6 -18 12t-19 10q-49 23 -98 23q-90 0 -158 -64q-31 -33 -48 -73t-17 -83zM553 627q0 -20 14 -35q14 -14 33 -14q16 0 31 14l174 174l-66 65l-174 -174q-12 -12 -12 -30zM635 543 q0 -18 14 -33q14 -14 33 -14q18 0 31 12l184 184l18 -20l-182 -183q-12 -12 -12 -30q0 -20 14 -35q12 -12 33 -12q18 0 31 12l182 182l18 -16l-184 -184q-12 -12 -12 -31q0 -18 14 -33q14 -14 33 -14q18 0 31 12l188 186l48.5 48.5t43.5 46.5q35 35 53.5 76.5t18.5 88.5 q0 88 -64 156q-68 63 -157 64q-86 0 -152 -60l86 -84q23 -23 22 -56.5t-26 -57.5q-27 -27 -61 -27q-31 0 -54 22l-6 5l-174 -175q-12 -12 -12 -30z" />
<glyph unicode="E" d="M182 719q0 139 53.5 262t144.5 214t214 144.5t262 53.5t261 -53.5t213 -144.5t144.5 -214t53.5 -262t-53.5 -262t-144.5 -214t-213 -144.5t-261 -53.5t-262 53.5t-214 144.5t-144.5 214t-53.5 262zM508 365l4 -5l170 41l401 404q6 12 7 29q0 14 -7.5 31.5t-29.5 39.5 l-13 13l-391 -392l33 -32l-2 -45l-21 -21l-45 -12l-49 49l13 45l426 426q-18 4 -30.5 2t-19.5 -4l-401 -399zM985 967q14 4 31 4q14 -2 31.5 -8.5t37.5 -26.5q23 -23 30 -40t7 -32q0 -16 -6 -28l37 38q29 29 32 67v7q0 34 -28 60q-27 27 -64 27l-1 -1q-38 0 -68 -28z" />
<glyph unicode="F" d="M182 719q0 139 53.5 261t144.5 213t213 144.5t261 53.5t262 -53.5t214 -144.5t144.5 -213t53.5 -261t-53.5 -262t-144.5 -214t-214 -144.5t-262 -53.5t-261 53.5t-213 144.5t-144.5 214t-53.5 262zM631 696h117v-338h129v338h137v113h-137v80q0 16 9 27.5t19 11.5h109 v121h-109q-68 0 -112.5 -50.5t-44.5 -121.5v-68h-117v-113z" />
<glyph unicode="G" d="M485 850q0 72 29 135.5t78 110.5t114.5 74.5t139.5 27.5t139.5 -27.5t114.5 -74.5t77.5 -110.5t28.5 -135.5q0 -68 -15 -130.5t-41 -117.5t-58.5 -104t-65.5 -90q-80 -96 -180 -172q-100 76 -180 172q-35 41 -67 90t-57.5 104t-41 117.5t-15.5 130.5zM666 846 q0 -37 14 -69t38.5 -55.5t57.5 -36.5t70 -13t69.5 13t57 36.5t39 55.5t14.5 69t-14.5 68.5t-39 55t-57 37t-69.5 13.5t-70 -13.5t-57.5 -37t-38.5 -55t-14 -68.5z" />
<glyph unicode="I" d="M182 719q0 139 53.5 262t144.5 214t214 144.5t262 53.5t261 -53.5t213 -144.5t144.5 -214t53.5 -262t-53.5 -262t-144.5 -214t-213 -144.5t-261 -53.5t-262 53.5t-214 144.5t-144.5 214t-53.5 262zM735 803q-1 -2 -1 -4q0 -6 9 -6h52q16 0 12 -17l-45 -336q-1 -10 -1 -19 q0 -73 89 -73q31 0 64 12t51 43q4 4 4 7q0 4 -6 6t-13 -4q-8 -10 -19 -20.5t-28 -10.5q-16 0 -22.5 9t-1.5 34l53 379q0 10 -10 10h-177q-10 0 -10 -10zM829 973q-1 -5 -1 -10q0 -23 14 -39q18 -20 47 -19q29 0 51.5 19.5t26.5 48.5q1 5 1 10q0 22 -14 38q-18 19 -47 19 t-51.5 -19t-26.5 -48z" />
<glyph unicode="L" d="M180 719q0 139 53.5 262t144.5 214t213 144.5t261 53.5t262 -53.5t214 -144.5t144.5 -214t53.5 -262t-53.5 -261t-144.5 -214t-214 -145.5t-262 -53.5t-261 53.5t-213 144.5t-144.5 214t-53.5 262zM659 737q0 -23 15 -35q53 -57 96 -102q37 -39 70.5 -73.5t42.5 -41.5 q13 -14 35 -15h3q20 0 35 15q18 18 18 35.5t-18 36.5l-172 180l172 181q17 19 17 39q0 19 -17 34q-16 16 -36 16l-2 -1q-22 0 -35 -15l-42 -42t-71 -72q-43 -46 -96 -103q-14 -14 -15 -37z" />
<glyph unicode="M" d="M182 717q0 139 53.5 262t144.5 214t213 144.5t261 53.5t262 -53.5t214 -144.5t144.5 -214t53.5 -262t-53.5 -261t-144.5 -213t-214 -144.5t-262 -53.5t-261 53.5t-213 144.5t-144.5 213t-53.5 261zM483 461q4 2 9.5 4t11.5 6l327 182l-335 224q-8 8 -9 14q-4 -6 -4 -21 v-399v-10zM487 451q10 -33 48 -33h649q35 0 49 33q-12 8 -23 12l-329 184h-2q-12 -4 -19 -4q-8 0 -20 4l-332 -184q-16 -8 -21 -12zM492 899q0 -2 4 -6l4 -4l39 -27l43 -28l256 -172q6 -4 22 -5q14 0 21 5l249 167q8 6 20.5 14.5t23.5 14.5l47 31q0 2 1 2t1 2q4 4 4 6 q2 2 0 8q-2 2 -3 4t-5 4l-27 13l-18 8l-13 6v10q0 14 -10 24.5t-27 10.5h-55l-16 6l-17 8l-45 23l-108 51q-10 6 -23 6q-16 0 -24 -6l-107 -51q-10 -4 -23.5 -11t-23.5 -12l-16 -8l-15 -6h-65q-14 0 -24.5 -10t-10.5 -25v-14q-6 -2 -14 -6l-11 -4l-24 -13q-4 -2 -10 -8v-8z M514 901l31 14l6 3v-33v-8l-2 2zM569 885v67q0 16 17 17h538q18 0 19 -17v-71q0 -23 -19 -33l-4 -4l-16 -10l-227 -152q-16 -12 -33 0l-252 168l-6 2q-16 12 -17 33zM692 987l45 21l107 51q8 4 16 4q6 0 14 -4l109 -51l39 -19l4 -2h-334zM860 674q6 0 10 4q-4 -4 -10 -4z M887 653l330 -182q4 -4 9 -6t9 -4q0 2 1 4t1 6v399q0 8 -4 21q-4 -10 -10 -14zM1151 850q0 2 2 2zM1159 870q0 4 1 5.5t1 5.5v41l6 -2l37 -19l-41 -29z" />
<glyph unicode="N" d="M688 651v27h328v-27h-328zM688 725v27h328v-27h-328zM688 797v26h328v-26h-328zM688 870v29h211v-29h-211z" />
<glyph unicode="P" d="M182 717q0 139 53.5 262t144.5 214t214 144.5t262 53.5t261 -53.5t213 -144.5t144.5 -214t53.5 -262t-53.5 -261t-144.5 -213t-213 -144.5t-261 -53.5t-262 53.5t-214 144.5t-144.5 213t-53.5 261zM533 536q-3 -10 -3 -20q0 -12 4 -22q8 -20 26 -36t32 -30q16 -16 54 -16 t88 19.5t110 58.5t121 100t100 120.5t57.5 109.5t18.5 88t-17 55q-14 14 -30 31q-18 16 -36 24q-11 5 -22 5q-8 0 -18 -3q-22 -6 -49 -39t-35 -55.5t-4 -39t16 -29.5t27 -28q10 -10 6 -27.5t-17.5 -39t-35 -45t-43.5 -45.5q-23 -23 -46.5 -44.5t-45 -34.5t-39 -18.5 t-27.5 5.5l-27.5 27.5t-30 16.5t-39 -5.5t-55.5 -34.5t-40 -48z" />
<glyph unicode="Q" d="M170 709q0 137 53 259t144.5 214t214.5 146t262 54q137 0 259 -53t214 -144t145.5 -214t53.5 -262q0 -137 -53.5 -260t-144.5 -215.5t-213 -145.5t-261 -53q-137 0 -260 53t-215.5 144.5t-145.5 214t-53 262.5zM668 690q0 -23 14 -35q51 -55 94 -102q37 -41 70 -76 t41 -43q14 -14 35 -15h3q20 0 36 15q17 18 17 36t-17 36l-168 182l176 178q16 18 16 38t-16 36q-15 15 -35 15h-3q-22 -1 -36 -15q-8 -6 -42 -40l-73 -73q-45 -45 -98 -100q-14 -14 -14 -37z" />
<glyph unicode="R" d="M170 709q0 137 53 259t144.5 214t214.5 146t262 54q137 0 259 -53t214 -144t145.5 -214t53.5 -262q0 -137 -53.5 -260t-144.5 -215.5t-213 -145.5t-261 -53q-137 0 -260 53t-215.5 144.5t-145.5 214t-53 262.5zM723 472.5q0 -19.5 16 -36.5q15 -15 35 -15h3q22 1 36 15 q8 6 42 41t71 74q43 45 96 102q14 14 14 37t-14 35q-53 57 -96 102q-37 39 -71 73l-42 42q-13 14 -35 15h-3q-20 0 -36 -15q-16 -16 -16 -34.5t16 -37.5l172 -180l-172 -180q-16 -18 -16 -37.5z" />
<glyph unicode="T" d="M182 717q0 139 53.5 262t144.5 214t214 144.5t262 53.5t261 -53.5t213 -144.5t144.5 -214t53.5 -262t-53.5 -262t-144.5 -214t-213 -144.5t-261 -53.5t-262 53.5t-214 144.5t-144.5 214t-53.5 262zM494 453q60 -41 132 -57q49 -11 99 -10q22 0 44 2q71 7 137.5 38 t117.5 84q80 86 109 203q6 23 8 47t2 47q0 14 8 26.5t20.5 23.5t24.5 22.5t21 23.5q-20 -10 -41 -14t-43 -8q47 29 65 82q-40 -23 -64 -28q-4 -1 -10 -1q-21 0 -51 18q-27 14 -55 20q-12 2 -24 2q-17 0 -33 -5q-29 -6 -52.5 -23.5t-39 -42t-20.5 -53.5t1 -59q-90 4 -170 45 t-135 110q-20 -35 -20 -73q1 -17 5 -35q14 -58 60 -90q-35 2 -68 18q0 -53 34 -95t87 -53q-18 -5 -37 -5q-15 0 -31 3q14 -45 53.5 -73.5t86.5 -28.5q-47 -38 -105 -54q-37 -11 -75 -10q-20 0 -41 3z" />
<glyph unicode="U" d="M178 719q0 137 53.5 260t144.5 214t214 144.5t262 53.5t262 -53.5t214 -144.5t144.5 -213t53.5 -261t-53.5 -262t-144.5 -214t-214 -144.5t-262 -53.5t-261 53.5t-214 144.5t-145.5 214t-53.5 262zM603 650q0 -20 15 -36q16 -16 35 -16t37 16l180 172l181 -172 q18 -16 37.5 -16t35.5 16t16 37v1q0 22 -16 36q-8 8 -41.5 42t-72.5 71q-46 43 -103 96q-14 14 -37 14t-34 -14q-57 -53 -103 -96q-39 -37 -73.5 -71t-41.5 -42q-15 -15 -15 -38z" />
<glyph unicode="V" d="M176 715q0 139 53.5 262t144.5 214t214 144.5t262 53.5q137 0 260 -53.5t215 -144.5t145.5 -214t53.5 -262q0 -137 -53.5 -259t-144.5 -214t-214 -145.5t-262 -53.5t-262 53.5t-214 144.5t-144.5 212.5t-53.5 261.5zM578 745q6 -8 40.5 -41.5t73.5 -70.5q46 -43 103 -96 q14 -14 36 -15q23 0 35 15q57 53 103 96q39 37 72.5 70.5l41.5 41.5q13 14 15 36q0 2 1 4q0 20 -16 34q-17 17 -35 17h-1q-18 0 -35 -17l-181 -172l-180 172q-20 18 -38 17.5t-35 -17.5q-16 -16 -16 -36q0 -22 16 -38z" />
<glyph unicode="W" d="M182 512q6 4 13.5 7t15.5 7q31 -98 89 -180t139 -142.5t178.5 -94t205.5 -33.5q106 0 204.5 33.5t178.5 93t139.5 141.5t90.5 178q8 -6 16 -8t12 -6q-29 -100 -91 -185t-147 -146.5t-188.5 -96.5t-214.5 -35q-113 0 -214 35t-186 96.5t-146.5 147.5t-94.5 188zM229 1038 q43 80 105.5 144.5t139.5 111.5t165 73t184 26q100 0 192.5 -28t171.5 -78t141.5 -119.5t103.5 -153.5q-8 -4 -14.5 -8.5t-14.5 -8.5q-39 80 -98.5 147.5t-134 115t-163 74t-184.5 26.5q-92 0 -177 -24.5t-157.5 -69.5t-132 -108.5t-100.5 -139.5q-6 6 -13 11t-14 9z M444 797q0 94 66 155q31 31 72 47.5t84 16.5q57 0 100 -23q18 -8 35 -22l6 -4l108 -109q16 -16 15.5 -41.5t-19.5 -44.5q-20 -20 -47 -20q-23 0 -39 16l-155 156l-15 -15l54 -53l-174 -174q-10 -10 -13 -18q-8 -14 -6 -33q-72 72 -72 166zM535 637q0 16 14 31l174 174 l65 -66l-174 -174q-12 -12 -30 -12q-20 0 -35 14q-14 14 -14 33zM618 553q0 16 13 33l174 174l6 -6q23 -23 53 -23q35 0 62 27q25 25 25.5 58.5t-21.5 55.5l-86 84q63 59 151 60q92 0 156 -64q66 -61 67 -155q0 -94 -73 -166l-92 -92l-189 -187q-14 -14 -30 -14 q-18 0 -33 14q-15 15 -15 33q0 20 13 33l182 182l-16 16l-183 -182q-12 -12 -30 -12q-20 0 -35 14q-14 14 -15 33q0 16 15 31l182 182l-20 20l-183 -182q-14 -14 -30 -14q-18 0 -33 14q-14 14 -15 33z" />
<glyph unicode="b" d="M182 514q6 4 13.5 7t15.5 7q31 -98 89 -180t139 -142.5t178.5 -94t205.5 -33.5q106 0 204.5 33.5t178.5 93t139.5 141.5t90.5 178q8 -6 16 -8t12 -6q-29 -100 -91 -185t-147 -146.5t-188.5 -96.5t-214.5 -35q-113 0 -214 35t-186 96.5t-146.5 147.5t-94.5 188zM229 1040 q43 80 105.5 144.5t139.5 111.5t165 73t184 26q100 0 192.5 -28t171.5 -78t141.5 -119.5t103.5 -153.5q-8 -4 -14.5 -8t-14.5 -9q-39 80 -98.5 147.5t-134 115t-163 74t-184.5 26.5q-92 0 -177 -24.5t-157.5 -69.5t-132 -108.5t-100.5 -139.5q-6 6 -13 11t-14 9zM410 754 q-3 6 -3 13t3 15q8 12 26 13h164l162 245q9 11 20 11q7 0 15 -4t10 -14.5t-4 -18.5l-146 -219h338l-145 219q-6 8 -4 18t10 15t15 5q3 0 5 -1q10 -2 13 -11l164 -245h164q18 -1 24 -13q5 -8 5 -16q0 -6 -3 -12l-174 -348q-6 -16 -25 -17h-436q-18 0 -24 17zM481 737l23 -43 h108l-10 43h-121zM518 666l29 -60h88l-17 60h-100zM561 578l29 -58h65l-14 58h-80zM600 768q0 -20 18 -20q20 0 21 20q-1 18 -21 18q-18 0 -18 -18zM606 492l21 -43h47l-10 43h-58zM631 737l10 -43h104l-4 43h-110zM649 666l15 -60h88l-4 60h-99zM672 578l14 -58h74l-4 58 h-84zM692 492l13 -43h61l-4 43h-70zM770 737l4 -43h105l4 43h-113zM776 666l6 -60h88l7 60h-101zM784 578l4 -58h76l4 58h-84zM791 492l4 -43h63l2 43h-69zM887 449h61l13 43h-70zM893 520h74l14 58h-84zM899 606h90l15 60h-99zM907 694h103l12 43h-111zM979 449h47l21 43 h-58zM997 520h64l31 58h-80zM1014 766q0 -18 20 -18q18 0 19 18q-1 20 -19 20q-20 0 -20 -20zM1018 606h88l29 60h-103zM1040 694h109l20 43h-118z" />
<glyph unicode="c" d="M182 514q6 4 13.5 7t15.5 7q31 -98 89 -180t139 -142.5t178.5 -94t205.5 -33.5q106 0 204.5 33.5t178.5 93t139.5 141.5t90.5 178q8 -6 16 -8t12 -6q-29 -100 -91 -185t-147 -146.5t-188.5 -96.5t-214.5 -35q-113 0 -214 35t-186 96.5t-146.5 147.5t-94.5 188zM229 1040 q43 80 105.5 144.5t139.5 111.5t165 73t184 26q100 0 192.5 -28t171.5 -78t141.5 -119.5t103.5 -153.5q-8 -4 -14.5 -8t-14.5 -9q-39 80 -98.5 147.5t-134 115t-163 74t-184.5 26.5q-92 0 -177 -24.5t-157.5 -69.5t-132 -108.5t-100.5 -139.5q-6 6 -13 11t-14 9zM621 529.5 q0 21.5 16 35.5l119 137l-119 138q-16 16 -16 36.5t16 36.5q17 17 37 17h1q20 0 36 -17l114 -131l115 131q16 17 38 17h1q21 0 35 -17q16 -16 16 -36.5t-16 -36.5l-119 -138l119 -137q16 -14 16 -35.5t-16 -37.5q-14 -16 -36 -16q-1 0 -1 -1q-21 0 -37 17l-115 133 l-114 -133q-16 -16 -37 -16q-1 0 -1 -1q-20 0 -36 17q-16 16 -16 37.5z" />
<glyph unicode="d" d="M182 514q6 4 13.5 7t15.5 7q31 -98 89 -180t139 -142.5t178.5 -94t205.5 -33.5q106 0 204.5 33.5t178.5 93t139.5 141.5t90.5 178q8 -6 16 -8t12 -6q-29 -100 -91 -185t-147 -146.5t-188.5 -96.5t-214.5 -35q-113 0 -214 35t-186 96.5t-146.5 147.5t-94.5 188zM229 1040 q43 80 105.5 144.5t139.5 111.5t165 73t184 26q100 0 192.5 -28t171.5 -78t141.5 -119.5t103.5 -153.5q-8 -4 -14.5 -8t-14.5 -9q-39 80 -98.5 147.5t-134 115t-163 74t-184.5 26.5q-92 0 -177 -24.5t-157.5 -69.5t-132 -108.5t-100.5 -139.5q-6 6 -13 11t-14 9zM444 799 q0 94 66 155q31 31 72 47.5t84 16.5q57 0 100 -23q18 -8 35 -22l6 -4l108 -109q16 -16 15.5 -41.5t-19.5 -44.5q-20 -20 -47 -20q-23 0 -39 16l-155 156l-15 -15l54 -53l-174 -174q-10 -10 -13 -18q-8 -14 -6 -33q-72 72 -72 166zM535 639q0 16 14 31l174 174l65 -66 l-174 -174q-12 -12 -30 -12q-20 0 -35 14q-14 14 -14 33zM618 555q0 16 13 33l174 174l6 -6q23 -23 53 -23q35 0 62 27q25 25 25.5 58.5t-21.5 55.5l-86 84q63 59 151 60q92 0 156 -64q66 -61 67 -155q0 -94 -73 -166l-92 -92l-189 -187q-14 -14 -30 -14q-18 0 -33 14 q-15 15 -15 33q0 20 13 33l182 182l-16 16l-183 -182q-12 -12 -30 -12q-20 0 -35 14q-14 14 -15 33q0 16 15 31l182 182l-20 21l-183 -183q-14 -14 -30 -14q-18 0 -33 14q-14 14 -15 33z" />
<glyph unicode="e" d="M182 514q6 4 13.5 7t15.5 7q31 -98 89 -180t139 -142.5t178.5 -94t205.5 -33.5q106 0 204.5 33.5t178.5 93t139.5 141.5t90.5 178q8 -6 16 -8t12 -6q-29 -100 -91 -185t-147 -146.5t-188.5 -96.5t-214.5 -35q-113 0 -214 35t-186 96.5t-146.5 147.5t-94.5 188zM229 1040 q43 80 105.5 144.5t139.5 111.5t165 73t184 26q100 0 192.5 -28t171.5 -78t141.5 -119.5t103.5 -153.5q-8 -4 -14.5 -8t-14.5 -9q-39 80 -98.5 147.5t-134 115t-163 74t-184.5 26.5q-92 0 -177 -24.5t-157.5 -69.5t-132 -108.5t-100.5 -139.5q-6 6 -13 11t-14 9zM489 432 l46 172l401 400q6 2 18.5 4t30.5 -2l-426 -426l-12 -45l49 -50l45 13l21 20l2 45l-31 33l389 391l12 -12q23 -23 31 -40t8 -32q0 -16 -6 -29l-403 -403l-170 -41zM967 1036l39 39q29 29 67.5 29t65.5 -27q28 -26 28 -60q-1 -3 -1 -7q-4 -38 -31 -68l-37 -37q6 12 6 29 q0 14 -7 31.5t-30 40.5q-20 20 -37.5 26t-32.5 8q-16 0 -30 -4z" />
<glyph unicode="f" d="M182 514q6 4 13.5 7t15.5 7q31 -98 89 -180t139 -142.5t178.5 -94t205.5 -33.5q106 0 204.5 33.5t178.5 93t139.5 141.5t90.5 178q8 -6 16 -8t12 -6q-29 -100 -91 -185t-147 -146.5t-188.5 -96.5t-214.5 -35q-113 0 -214 35t-186 96.5t-146.5 147.5t-94.5 188zM229 1040 q43 80 105.5 144.5t139.5 111.5t165 73t184 26q100 0 192.5 -28t171.5 -78t141.5 -119.5t103.5 -153.5q-8 -4 -14.5 -8t-14.5 -9q-39 80 -98.5 147.5t-134 115t-163 74t-184.5 26.5q-92 0 -177 -24.5t-157.5 -69.5t-132 -108.5t-100.5 -139.5q-6 6 -13 11t-14 9zM637 690 v113h117v67q0 72 44 122t111 50h111v-120h-111q-10 0 -18 -11.5t-8 -27.5v-80h137v-113h-137v-338h-129v338h-117z" />
<glyph unicode="i" d="M182 514q6 4 13.5 7t15.5 7q31 -98 89 -180t139 -142.5t178.5 -94t205.5 -33.5q106 0 204.5 33.5t178.5 93t139.5 141.5t90.5 178q8 -6 16 -8t12 -6q-29 -100 -91 -185t-147 -146.5t-188.5 -96.5t-214.5 -35q-113 0 -214 35t-186 96.5t-146.5 147.5t-94.5 188zM229 1040 q43 80 105.5 144.5t139.5 111.5t165 73t184 26q100 0 192.5 -28t171.5 -78t141.5 -119.5t103.5 -153.5q-8 -4 -14.5 -8t-14.5 -9q-39 80 -98.5 147.5t-134 115t-163 74t-184.5 26.5q-92 0 -177 -24.5t-157.5 -69.5t-132 -108.5t-100.5 -139.5q-6 6 -13 11t-14 9zM684 821 q0 10 10 10h176q10 0 11 -10l-54 -379q-4 -25 2.5 -34t22.5 -9t27.5 9.5t19.5 21.5q6 6 12 4t6 -6q0 -3 -4 -6q-18 -31 -51 -43t-63 -12q-89 0 -89 73q0 9 1 19l45 336q4 14 -13 14h-51q-9 0 -9 7q0 2 1 5zM778 991q4 29 26.5 48.5t51.5 19.5q28 1 46 -19q14 -15 14 -37 q0 -6 -1 -12q-4 -29 -26 -48t-51 -19q-28 0 -46 20q-14 16 -15 37q0 5 1 10z" />
<glyph unicode="l" d="M182 514q6 4 13.5 7t15.5 7q31 -98 89 -180t139 -142.5t178.5 -94t205.5 -33.5q106 0 204.5 33.5t178.5 93t139.5 141.5t90.5 178q8 -6 16 -8t12 -6q-29 -100 -91 -185t-147 -146.5t-188.5 -96.5t-214.5 -35q-113 0 -214 35t-186 96.5t-146.5 147.5t-94.5 188zM229 1040 q43 80 105.5 144.5t139.5 111.5t165 73t184 26q100 0 192.5 -28t171.5 -78t141.5 -119.5t103.5 -153.5q-8 -4 -14.5 -8t-14.5 -9q-39 80 -98.5 147.5t-134 115t-163 74t-184.5 26.5q-92 0 -177 -24.5t-157.5 -69.5t-132 -108.5t-100.5 -139.5q-6 6 -13 11t-14 9zM604 723 q0 20 14 35q53 57 97 102q37 39 69.5 73t40.5 42q16 14 38 15h3q20 0 35 -15q17 -17 17 -36q0 -18 -17 -36l-174 -180l174 -180q18 -20 17.5 -38.5t-17.5 -35.5q-15 -15 -35 -15h-2q-22 1 -39 15q-8 6 -40.5 41t-69.5 74q-44 45 -97 102q-14 14 -14 37z" />
<glyph unicode="m" d="M182 514q6 4 13.5 7t15.5 7q31 -98 89 -180t139 -142.5t178.5 -94t205.5 -33.5q106 0 204.5 33.5t178.5 93t139.5 141.5t90.5 178q8 -6 16 -8t12 -6q-29 -100 -91 -185t-147 -146.5t-188.5 -96.5t-214.5 -35q-113 0 -214 35t-186 96.5t-146.5 147.5t-94.5 188zM229 1040 q43 80 105.5 144.5t139.5 111.5t165 73t184 26q100 0 192.5 -28t171.5 -78t141.5 -119.5t103.5 -153.5q-8 -4 -14.5 -8t-14.5 -9q-39 80 -98.5 147.5t-134 115t-163 74t-184.5 26.5q-92 0 -177 -24.5t-157.5 -69.5t-132 -108.5t-100.5 -139.5q-6 6 -13 11t-14 9zM455 461v10 v401q0 12 4 19q0 -6 8 -14l336 -224l-328 -182q-6 -4 -11 -6t-9 -4zM459 451q4 4 20 12l332 184q12 -4 20 -4q6 0 19 4h2l330 -184q10 -4 22 -12q-14 -31 -49 -31h-649q-37 0 -47 31zM463 899v8q6 6 10 8l25 13l10 4q8 4 14 8v12q0 14 10.5 24.5t24.5 10.5h66l14 6l16 8 q10 4 23.5 11.5t23.5 11.5l107 51q8 6 24 6q12 0 23 -6l109 -51l45 -23l16 -8l16 -6h56q16 0 26.5 -10t10.5 -25v-10l12 -6l18 -8l27 -13q4 -2 5 -4t3 -4q4 -4 0 -8q0 -2 -4 -6q0 -2 -1 -2t-1 -2l-47 -31q-10 -6 -22.5 -14t-20.5 -15l-250 -165q-10 -6 -21 -7q-14 0 -22 7 l-256 170q-10 6 -21.5 15t-21.5 15l-39 25l-4 4t-4 6zM485 901l35 -22l2 -2v8v35l-6 -5zM541 885q0 -18 16 -31l6 -4l256 -172q2 -2 12 -2q8 0 11 2l250 166l4 4q8 4 13 14t5 19v71q0 16 -18 17h-539q-16 0 -16 -17v-67zM664 987h333l-4 2l-39 19l-108 51q-8 4 -15 4 q-8 0 -16 -4l-106 -51zM858 653l336 224q6 4 10 14q4 -12 4 -19v-401q0 -4 -1 -6t-1 -4q-4 2 -9 4t-9 6zM1122 850q0 2 1 3t1 3h2v4v-2l-2 -2q0 -2 -1 -3t-1 -3zM1124 856h2v4v-2q0 -2 -2 -2zM1126 860q4 8 4 10l5 2l41 29l-37 19l-6 4v-43q0 -4 -1.5 -5.5t-1.5 -5.5 q0 -2 -4 -10zM1126 860q4 8 4 10q0 -2 -4 -10z" />
<glyph unicode="o" d="M195 723q0 135 51 255t140 209t209 140t255 51t255 -51t209 -140t140 -209t51 -255t-51 -255t-140 -209t-209 -140t-255 -51t-255 51t-209 140t-140 209t-51 255zM215 723q0 -131 50 -247t136 -202t202 -136t247 -50t247.5 50t202.5 136t136.5 202t50.5 247t-50.5 247.5 t-136.5 203t-202.5 136.5t-247.5 50t-247 -50t-202 -136.5t-136 -203t-50 -247.5z" />
<glyph unicode="p" d="M182 514q6 4 13.5 7t15.5 7q31 -98 89 -180t139 -142.5t178.5 -94t205.5 -33.5q106 0 204.5 33.5t178.5 93t139.5 141.5t90.5 178q8 -6 16 -8t12 -6q-29 -100 -91 -185t-147 -146.5t-188.5 -96.5t-214.5 -35q-113 0 -214 35t-186 96.5t-146.5 147.5t-94.5 188zM229 1040 q43 80 105.5 144.5t139.5 111.5t165 73t184 26q100 0 192.5 -28t171.5 -78t141.5 -119.5t103.5 -153.5q-8 -4 -14.5 -8t-14.5 -9q-39 80 -98.5 147.5t-134 115t-163 74t-184.5 26.5q-92 0 -177 -24.5t-157.5 -69.5t-132 -108.5t-100.5 -139.5q-6 6 -13 11t-14 9zM509 538 q7 23 40 50t54.5 35t37.5 4t29.5 -16.5t27.5 -26.5q10 -10 27.5 -6t39 17t46.5 34.5t47 44.5q23 23 43.5 46t33.5 44.5t18 39t-5 27.5q-16 14 -28.5 27.5t-15.5 30t5.5 39t34.5 55.5q27 33 48 39q10 3 20 3q11 0 22 -4q19 -7 35.5 -24.5t30.5 -31.5q16 -16 16 -54.5 t-19.5 -88.5t-58.5 -109.5t-100 -120.5t-120.5 -100t-110 -57.5t-88 -18.5t-54.5 16q-14 14 -30.5 29.5t-24.5 34.5q-4 11 -4 22q0 10 3 20z" />
<glyph unicode="q" d="M182 514q6 4 13.5 7t15.5 7q31 -98 89 -180t139 -142.5t178.5 -94t205.5 -33.5q106 0 204.5 33.5t178.5 93t139.5 141.5t90.5 178q8 -6 16 -8t12 -6q-29 -100 -91 -185t-147 -146.5t-188.5 -96.5t-214.5 -35q-113 0 -214 35t-186 96.5t-146.5 147.5t-94.5 188zM229 1040 q43 80 105.5 144.5t139.5 111.5t165 73t184 26q100 0 192.5 -28t171.5 -78t141.5 -119.5t103.5 -153.5q-8 -4 -14.5 -8t-14.5 -9q-39 80 -98.5 147.5t-134 115t-163 74t-184.5 26.5q-92 0 -177 -24.5t-157.5 -69.5t-132 -108.5t-100.5 -139.5q-6 6 -13 11t-14 9zM657 725 q0 20 15 35q53 57 96 102q37 39 69.5 73t41.5 42q16 14 37 15h3q20 0 35 -15q17 -17 17 -36q0 -18 -17 -36l-174 -180l174 -180q18 -19 18 -38t-18 -36q-15 -15 -35 -15h-3q-21 1 -37 15q-8 6 -41 41t-70 74q-43 45 -96 102q-14 14 -15 37z" />
<glyph unicode="r" d="M182 514q6 4 13.5 7t15.5 7q31 -98 89 -180t139 -142.5t178.5 -94t205.5 -33.5q106 0 204.5 33.5t178.5 93t139.5 141.5t90.5 178q8 -6 16 -8t12 -6q-29 -100 -91 -185t-147 -146.5t-188.5 -96.5t-214.5 -35q-113 0 -214 35t-186 96.5t-146.5 147.5t-94.5 188zM229 1040 q43 80 105.5 144.5t139.5 111.5t165 73t184 26q100 0 192.5 -28t171.5 -78t141.5 -119.5t103.5 -153.5q-8 -4 -14.5 -8t-14.5 -9q-39 80 -98.5 147.5t-134 115t-163 74t-184.5 26.5q-92 0 -177 -24.5t-157.5 -69.5t-132 -108.5t-100.5 -139.5q-6 6 -13 11t-14 9zM709 505.5 q0 18.5 16 37.5l174 180l-174 180q-16 18 -16 38t16 36q15 15 35 15h2q22 -1 39 -15q6 -8 39.5 -42t70.5 -73q44 -45 97 -102q14 -14 14 -37q0 -20 -14 -35q-53 -57 -97 -102q-37 -39 -70.5 -74t-39.5 -41q-16 -14 -38 -15h-3q-20 0 -35 15q-16 16 -16 34.5z" />
<glyph unicode="t" d="M182 514q6 4 13.5 7t15.5 7q31 -98 89 -180t139 -142.5t178.5 -94t205.5 -33.5q106 0 204.5 33.5t178.5 93t139.5 141.5t90.5 178q8 -6 16 -8t12 -6q-29 -100 -91 -185t-147 -146.5t-188.5 -96.5t-214.5 -35q-113 0 -214 35t-186 96.5t-146.5 147.5t-94.5 188zM229 1040 q43 80 105.5 144.5t139.5 111.5t165 73t184 26q100 0 192.5 -28t171.5 -78t141.5 -119.5t103.5 -153.5q-8 -4 -14.5 -8t-14.5 -9q-39 80 -98.5 147.5t-134 115t-163 74t-184.5 26.5q-92 0 -177 -24.5t-157.5 -69.5t-132 -108.5t-100.5 -139.5q-6 6 -13 11t-14 9zM500 457 q8 -2 16 -2h19q104 0 184 63q-49 0 -86 28.5t-53 74.5q10 -2 28 -3q10 0 19.5 1.5t19.5 3.5q-51 10 -85 51t-34 94v2q31 -16 68 -18q-66 43 -66 122q0 41 19 76q55 -68 135 -109.5t172 -45.5q-4 8 -4 16v18q0 61 43 104.5t104 43.5q66 0 109 -47q27 4 49.5 14t44.5 23 q-8 -27 -25.5 -47.5t-39.5 -34.5q23 4 44.5 8t41.5 14q-33 -47 -74 -76v-20q0 -74 -27.5 -148.5t-81 -135t-132.5 -99.5t-181 -39q-125 0 -227 68z" />
<glyph unicode="u" d="M182 514q6 4 13.5 7t15.5 7q31 -98 89 -180t139 -142.5t178.5 -94t205.5 -33.5q106 0 204.5 33.5t178.5 93t139.5 141.5t90.5 178q8 -6 16 -8t12 -6q-29 -100 -91 -185t-147 -146.5t-188.5 -96.5t-214.5 -35q-113 0 -214 35t-186 96.5t-146.5 147.5t-94.5 188zM229 1040 q43 80 105.5 144.5t139.5 111.5t165 73t184 26q100 0 192.5 -28t171.5 -78t141.5 -119.5t103.5 -153.5q-8 -4 -14.5 -8t-14.5 -9q-39 80 -98.5 147.5t-134 115t-163 74t-184.5 26.5q-92 0 -177 -24.5t-157.5 -69.5t-132 -108.5t-100.5 -139.5q-6 6 -13 11t-14 9zM575 655 q6 6 41 40t74 71q46 43 103 96q14 14 36 15q20 0 35 -15q57 -53 103 -96q39 -37 72.5 -70.5t41.5 -40.5q13 -15 15 -37q0 -2 1 -4q0 -19 -16 -34q-17 -16 -35 -16q-1 0 -1 -1q-18 0 -35 17l-181 174l-180 -174q-17 -16 -37 -16q-1 0 -2 -1q-19 0 -35 17q-15 15 -15 35 q0 23 15 40z" />
<glyph unicode="v" d="M182 514q6 4 13.5 7t15.5 7q31 -98 89 -180t139 -142.5t178.5 -94t205.5 -33.5q106 0 204.5 33.5t178.5 93t139.5 141.5t90.5 178q8 -6 16 -8t12 -6q-29 -100 -91 -185t-147 -146.5t-188.5 -96.5t-214.5 -35q-113 0 -214 35t-186 96.5t-146.5 147.5t-94.5 188zM229 1040 q43 80 105.5 144.5t139.5 111.5t165 73t184 26q100 0 192.5 -28t171.5 -78t141.5 -119.5t103.5 -153.5q-8 -4 -14.5 -8t-14.5 -9q-39 80 -98.5 147.5t-134 115t-163 74t-184.5 26.5q-92 0 -177 -24.5t-157.5 -69.5t-132 -108.5t-100.5 -139.5q-6 6 -13 11t-14 9zM558 817 q0 20 15 35q18 18 35.5 18t36.5 -18l180 -174l181 174q18 16 37.5 16t35.5 -16t16 -36l-1 -2q0 -22 -15 -38q-8 -8 -41.5 -41t-72.5 -69q-46 -44 -103 -97q-14 -14 -37 -14q-20 0 -34 14q-57 53 -103 97q-39 37 -73.5 69.5t-41.5 40.5q-15 18 -15 41z" />
<glyph unicode="w" d="M182 514q6 4 13.5 7t15.5 7q31 -98 89 -180t139 -142.5t178.5 -94t205.5 -33.5q106 0 204.5 33.5t178.5 93t139.5 141.5t90.5 178q8 -6 16 -8t12 -6q-29 -100 -91 -185t-147 -146.5t-188.5 -96.5t-214.5 -35q-113 0 -214 35t-186 96.5t-146.5 147.5t-94.5 188zM229 1040 q43 80 105.5 144.5t139.5 111.5t165 73t184 26q100 0 192.5 -28t171.5 -78t141.5 -119.5t103.5 -153.5q-8 -4 -14.5 -8t-14.5 -9q-39 80 -98.5 147.5t-134 115t-163 74t-184.5 26.5q-92 0 -177 -24.5t-157.5 -69.5t-132 -108.5t-100.5 -139.5q-6 6 -13 11t-14 9zM479 707 q0 70 29 137q12 33 31.5 60.5t42.5 51.5q53 49 112 74q68 29 137 29q70 0 138 -29q61 -25 110 -74q53 -53 76 -112q29 -68 29 -137q0 -70 -29 -138q-25 -63 -76 -110q-47 -51 -110 -76q-68 -29 -138 -29t-137 29q-61 25 -112 76q-49 49 -74 110q-29 68 -29 138zM530 682 q6 -49 21 -88l18 -6l56 -19q-8 53 -13 113h-82zM530 733h82q2 55 13 111q-29 -6 -56 -19l-18 -6q-8 -20 -12 -41.5t-9 -44.5zM590 528q12 -18 28.5 -33.5t32.5 -29.5q-4 12 -7 24.5t-7 24.5q-27 6 -47 14zM590 887q12 4 23.5 7t23.5 7q4 12 7 23.5t7 23.5q-35 -27 -61 -61z M664 682q2 -33 5 -63.5t11 -63.5q31 -6 62.5 -10t64.5 -6v143h-143zM664 733h143v141q-33 -2 -64.5 -5t-62.5 -11q-8 -31 -11 -62.5t-5 -62.5zM694 502q6 -33 19 -58l6 -16q37 -16 88 -20v81q-57 0 -113 13zM694 913q55 10 113 13v82q-23 -2 -45.5 -7.5t-42.5 -13.5l-6 -18 q-12 -29 -19 -56zM856 408q47 4 88 20l6 16q4 14 9.5 28.5t9.5 29.5q-55 -12 -113 -13v-81zM856 539q33 2 63.5 6t63.5 10q6 33 10 63.5t6 63.5h-143v-143zM856 733h143q-2 31 -6 62.5t-10 62.5q-33 8 -63.5 11t-63.5 5v-141zM856 926q57 -4 113 -13l-19 56l-6 18 q-23 8 -44 13.5t-44 7.5v-82zM1010 465q37 27 63 63q-12 -4 -24.5 -7t-24.5 -7q-4 -12 -7 -24.5t-7 -24.5zM1010 948q8 -20 14 -47q12 -4 24.5 -7t24.5 -7q-14 16 -29.5 32.5t-33.5 28.5zM1036 569q16 4 29.5 9.5t28.5 9.5l16 6q16 41 20 88h-79q-2 -29 -5.5 -56.5 t-9.5 -56.5zM1036 844q6 -29 9 -55.5t6 -55.5h79q-2 23 -6 44.5t-14 41.5l-16 6q-29 12 -58 19z" />
<glyph unicode="x" />
<glyph unicode="&#x2000;" horiz-adv-x="766" />
<glyph unicode="&#x2001;" horiz-adv-x="1532" />
<glyph unicode="&#x2002;" horiz-adv-x="766" />
<glyph unicode="&#x2003;" horiz-adv-x="1532" />
<glyph unicode="&#x2004;" horiz-adv-x="510" />
<glyph unicode="&#x2005;" horiz-adv-x="383" />
<glyph unicode="&#x2006;" horiz-adv-x="255" />
<glyph unicode="&#x2007;" horiz-adv-x="255" />
<glyph unicode="&#x2008;" horiz-adv-x="191" />
<glyph unicode="&#x2009;" horiz-adv-x="306" />
<glyph unicode="&#x200a;" horiz-adv-x="85" />
<glyph unicode="&#x202f;" horiz-adv-x="306" />
<glyph unicode="&#x205f;" horiz-adv-x="383" />
<glyph unicode="&#x25fc;" horiz-adv-x="1024" d="M0 0z" />
</font>
</defs>
</svg>
