<?xml version="1.0" encoding="utf-8"?>
<!-- Generator: Adobe Illustrator 14.0.0, SVG Export Plug-In . SVG Version: 6.00 Build 43363)  -->
<svg version="1.2" baseProfile="tiny" id="Layer_1" xmlns="http://www.w3.org/2000/svg" xmlns:xlink="http://www.w3.org/1999/xlink"
	 x="0px" y="0px" width="91.535px" height="91.534px" viewBox="0 0 91.535 91.534" xml:space="preserve">
<circle fill="#DD3826" cx="45.768" cy="45.768" r="45.767"/>
<path fill="#FFFFFF" d="M74.237,41.613c-0.359-0.58-0.992-0.935-1.676-0.935H61.404l-11.11-16.666
	c-0.502-0.754-1.521-0.958-2.275-0.455s-0.958,1.522-0.455,2.276l9.896,14.845H34.488l9.897-14.845
	c0.504-0.754,0.3-1.773-0.454-2.276c-0.755-0.503-1.773-0.299-2.276,0.455L30.543,40.679H19.386c-0.683,0-1.316,0.354-1.675,0.935
	c-0.359,0.58-0.392,1.306-0.086,1.916l11.816,23.634c0.334,0.668,1.016,1.089,1.762,1.089h29.542c0.746,0,1.428-0.422,1.762-1.089
	l11.817-23.634C74.628,42.919,74.596,42.194,74.237,41.613z M60.088,41.309c0.74,0,1.34,0.601,1.34,1.34
	c0,0.74-0.6,1.341-1.34,1.341c-0.739,0-1.34-0.601-1.34-1.341C58.749,41.909,59.349,41.309,60.088,41.309z M51.722,44.618h7.516
	L58.5,47.572h-7.024L51.722,44.618z M51.311,49.542h6.695l-0.984,3.938h-6.039L51.311,49.542z M40.965,53.48h-6.039l-0.985-3.938
	h6.696L40.965,53.48z M40.227,44.618l0.246,2.954h-7.024l-0.738-2.954H40.227z M31.91,41.258c0.74,0,1.341,0.601,1.341,1.341
	s-0.601,1.341-1.341,1.341s-1.341-0.601-1.341-1.341S31.169,41.258,31.91,41.258z M22.573,44.618h8.108l0.738,2.954H24.05
	L22.573,44.618z M25.035,49.542h6.878l0.984,3.938h-5.892L25.035,49.542z M27.989,55.45h5.4l0.984,3.938h-4.415L27.989,55.45z
	 M32.42,64.313l-1.477-2.954h3.922l0.738,2.954H32.42z M35.418,55.45h5.711l0.328,3.938h-5.055L35.418,55.45z M37.634,64.313
	l-0.739-2.954h4.727l0.246,2.954H37.634z M48.103,64.313h-4.26l-0.246-2.954h4.753L48.103,64.313z M48.514,59.389h-5.081
	l-0.328-3.938h5.737L48.514,59.389z M49.006,53.48H42.94l-0.328-3.938h6.723L49.006,53.48z M49.499,47.572h-7.051l-0.246-2.954
	h7.543L49.499,47.572z M54.314,64.313h-4.233l0.246-2.954h4.726L54.314,64.313z M50.491,59.389l0.328-3.938h5.711l-0.985,3.938
	H50.491z M59.528,64.313h-3.185l0.738-2.954h3.923L59.528,64.313z M61.99,59.389h-4.415l0.985-3.938h5.399L61.99,59.389z
	 M64.944,53.48h-5.892l0.984-3.938h6.877L64.944,53.48z M67.898,47.572h-7.369l0.739-2.954h8.107L67.898,47.572z"/>
</svg>
