<?xml version="1.0" encoding="utf-8"?>
<!-- Generator: Adobe Illustrator 14.0.0, SVG Export Plug-In . SVG Version: 6.00 Build 43363)  -->
<svg version="1.2" baseProfile="tiny" id="Layer_1" xmlns="http://www.w3.org/2000/svg" xmlns:xlink="http://www.w3.org/1999/xlink"
	 x="0px" y="0px" width="91.535px" height="91.534px" viewBox="0 0 91.535 91.534" xml:space="preserve">
<path fill="#DD3826" d="M0,45.768c0,25.275,20.492,45.768,45.766,45.768c25.277,0,45.77-20.492,45.77-45.768S71.043,0,45.766,0
	C20.492,0,0,20.492,0,45.768z"/>
<path fill="#F1F1F2" d="M32.154,61.754c1.405,1.404,3.685,1.404,5.092,0l7.953-9.092l7.955,9.092c1.406,1.404,3.686,1.404,5.092,0
	c1.405-1.408,1.405-3.688,0-5.094l-8.272-9.453l8.272-9.455c1.405-1.404,1.405-3.684,0-5.09c-1.408-1.406-3.688-1.406-5.092,0
	l-7.955,9.09l-7.953-9.09c-1.406-1.406-3.686-1.406-5.092,0s-1.406,3.686,0,5.09l8.272,9.455l-8.272,9.453
	C30.748,58.066,30.748,60.346,32.154,61.754z"/>
</svg>
