<?xml version="1.0" encoding="utf-8"?>
<!-- Generator: Adobe Illustrator 14.0.0, SVG Export Plug-In . SVG Version: 6.00 Build 43363)  -->
<!DOCTYPE svg PUBLIC "-//W3C//DTD SVG 1.1 Tiny//EN" "http://www.w3.org/Graphics/SVG/1.1/DTD/svg11-tiny.dtd">
<svg version="1.1" baseProfile="tiny" id="Layer_1" xmlns="http://www.w3.org/2000/svg" xmlns:xlink="http://www.w3.org/1999/xlink"
	 x="0px" y="0px" width="91.535px" height="91.534px" viewBox="0 0 91.535 91.534" xml:space="preserve">
<circle fill="#DD3826" cx="45.768" cy="45.768" r="45.767"/>
<g id="Your_Icon_3_">
	<path fill="#FFFFFF" d="M53.257,22.283c-4.63,0-6.603,3.287-6.603,3.287s-1.973-3.287-6.603-3.287
		c-3.915,0-7.202,3.287-7.202,7.203c0,9.001,13.805,16.206,13.805,16.206s13.805-7.203,13.805-16.206
		C60.459,25.57,57.172,22.283,53.257,22.283z M46.655,42.677c-3.969-2.355-11.175-7.758-11.175-13.19
		c0-2.164,1.913-4.574,4.572-4.574c3.974,0,5.945,3.945,6.603,3.945s2.63-3.945,6.603-3.945c2.601,0,4.573,2.41,4.573,4.574
		C57.831,34.921,50.624,40.322,46.655,42.677z"/>
	<path fill="#FFFFFF" d="M76.425,49.476c-0.643-1.283-2.336-1.948-4.245-1.948c-0.902,0-1.852,0.148-2.763,0.452
		c0,0-7.163,2.411-12.386,3.974c-1.817-0.668-3.881-0.691-6.032-0.711c-1.466-0.013-2.981-0.026-4.519-0.24
		c-1.152-0.16-3.965-0.996-6.023-1.643c-3.249-1.189-6.437-2.295-8.441-2.718c-0.932-0.196-2.061-0.28-3.311-0.28
		c-5.076,0-12.191,1.375-16.532,2.17c-2.228,2.867-0.314,11.812,2.992,13.308c0.327-0.005,6.173-1.627,8.832-1.627
		c0.268,0,0.501,0.015,0.696,0.051c6.955,1.289,19.605,4.331,23.385,4.331s23.209-8.297,25.512-9.449
		C77.37,53.256,77.37,51.366,76.425,49.476z M33.193,59.311c-2.962-0.624-5.761-1.214-8.021-1.633
		c-0.35-0.064-0.733-0.096-1.175-0.096c-2.275,0-6.023,0.544-8.129,1.05c-0.46-0.576-1.179-1.341-1.623-3.139
		c-0.512-2.066-0.218-3.502-0.021-4.422c4.244-0.78,10.129-2.079,14.48-2.079c1.133,0,2.064,0.075,2.768,0.223
		c1.514,0.32,12.409,3.973,14.524,4.268c1.706,0.236,3.427,0.376,4.976,0.391c2.603,0.023,6.941-0.257,6.98,2.18
		c0.014,0.854-0.85,1.416-2.862,1.648c-4.766,0.547-12.38-0.96-12.38-0.96c-3.096-0.629-5.231,0.247-5.862,0.521
		c0,0,3.107,1.087,5.448,1.514c0,0,6.193,1.253,10.879,1.312c0.487,0.006,0.987-0.022,1.467-0.049
		c-3.119,1.128-5.652,1.925-6.574,1.928C45.774,61.965,38.803,60.493,33.193,59.311z M74.434,51.502
		c-0.007,0.178-0.346,0.453-2.02,1.291c-1.559,0.779-7.218,3.19-12.727,5.345c0.364-0.396,1.514-2.738,0.142-4.279
		c3.269-1.006,7.038-2.246,10.421-3.385c0.623-0.208,1.291-0.307,1.931-0.316C74.064,50.126,74.44,51.326,74.434,51.502z"/>
</g>
</svg>
