<?xml version="1.0" encoding="utf-8"?>
<!-- Generator: Adobe Illustrator 14.0.0, SVG Export Plug-In . SVG Version: 6.00 Build 43363)  -->
<!DOCTYPE svg PUBLIC "-//W3C//DTD SVG 1.1 Tiny//EN" "http://www.w3.org/Graphics/SVG/1.1/DTD/svg11-tiny.dtd">
<svg version="1.1" baseProfile="tiny" id="Layer_1" xmlns="http://www.w3.org/2000/svg" xmlns:xlink="http://www.w3.org/1999/xlink"
	 x="0px" y="0px" width="91.535px" height="91.534px" viewBox="0 0 91.535 91.534" xml:space="preserve">
<path fill="#DD3826" d="M0,45.768c0,25.275,20.492,45.767,45.766,45.767c25.277,0,45.77-20.491,45.77-45.767
	C91.535,20.491,71.043,0,45.766,0C20.492,0,0,20.491,0,45.768z"/>
<path fill="#FFFFFF" d="M50.703,42.952c-0.861,0.861-2.023,1.357-3.193,1.357c-1.028,0-1.98-0.383-2.682-1.077L34.242,32.64
	l-0.959,0.958l3.656,3.656L25.088,49.107c-0.35,0.35-0.631,0.755-0.841,1.2c-0.327,0.694-0.463,1.46-0.397,2.22
	c-3.13-3.161-4.848-7.174-4.842-11.303c0.004-3.948,1.577-7.686,4.427-10.518c2.848-2.833,6.628-4.395,10.646-4.395
	c2.375,0,4.637,0.533,6.727,1.578c0.851,0.42,1.68,0.938,2.461,1.546l0.371,0.29l7.35,7.345
	C52.523,38.617,52.399,41.256,50.703,42.952z"/>
<path fill="#FFFFFF" d="M42.352,42.667L30.5,54.52c-0.555,0.549-1.305,0.856-2.095,0.856c-0.847,0-1.653-0.34-2.268-0.953
	s-0.952-1.415-0.952-2.267c0-0.797,0.3-1.541,0.855-2.096l11.852-11.852L42.352,42.667z"/>
<path fill="#FFFFFF" d="M71.511,41.225c0.005,4.156-1.733,8.189-4.9,11.361c-1.884,1.88-4.055,4.05-6.274,6.269L47.531,71.552
	c-0.555,0.555-1.298,0.856-2.095,0.856c-0.851,0-1.658-0.339-2.267-0.953c-0.598-0.599-0.932-1.384-0.948-2.213
	c-0.017-0.813,0.285-1.578,0.851-2.149l12.449-12.454l-1.162-1.164L41.91,65.931c-0.555,0.549-1.303,0.855-2.096,0.855
	c-0.845,0-1.652-0.339-2.268-0.951c-0.612-0.615-0.952-1.417-0.952-2.268c0-0.798,0.302-1.541,0.856-2.096L49.9,49.016l-1.324-1.324
	L36.12,60.142c-0.554,0.554-1.298,0.856-2.094,0.856c-0.851,0-1.659-0.34-2.269-0.952c-0.597-0.6-0.931-1.385-0.947-2.214
	c-0.021-0.813,0.285-1.578,0.852-2.149l11.852-11.852l0.36,0.361c0.959,0.953,2.251,1.476,3.635,1.476
	c1.514,0,3.027-0.642,4.153-1.755c2.218-2.23,2.347-5.726,0.279-7.793l-5.772-5.773c2.8-2.605,6.429-4.033,10.269-4.033
	c4.012,0,7.793,1.563,10.646,4.395C69.934,33.539,71.506,37.276,71.511,41.225z"/>
</svg>
