<?xml version="1.0" encoding="utf-8"?>
<!-- Generator: Adobe Illustrator 14.0.0, SVG Export Plug-In . SVG Version: 6.00 Build 43363)  -->
<svg version="1.2" baseProfile="tiny" id="Layer_1" xmlns="http://www.w3.org/2000/svg" xmlns:xlink="http://www.w3.org/1999/xlink"
	 x="0px" y="0px" width="91.535px" height="91.534px" viewBox="0 0 91.535 91.534" xml:space="preserve">
<circle fill="#DD3826" cx="45.768" cy="45.768" r="45.767"/>
<g>
	<path fill="#F1F1F2" d="M43.99,28.489c0.367-2.568,2.716-4.63,5.284-4.63c2.582,0,4.337,2.062,3.975,4.63
		c-0.372,2.568-2.72,4.63-5.289,4.63C45.383,33.119,43.622,31.058,43.99,28.489z"/>
	<path fill="#F1F1F2" d="M53.17,67.179c-1.683,2.795-5.064,3.749-7.787,3.749c-4.404,0-6.611-2.201-6.031-6.244l3.157-22.784
		c0.079-0.581-0.361-1.094-0.943-1.094h-3.455c-0.439,0-0.66-0.294-0.593-0.736c0-0.445,0.371-0.739,0.809-0.739h11.907
		c0.44,0,0.734,0.294,0.655,0.739l-3.592,25.715c-0.299,2.274,0.294,2.941,1.757,2.941c1.325,0,2.501-1.033,3.167-2.06
		c0.209-0.294,0.516-0.442,0.881-0.294C53.323,66.518,53.396,66.885,53.17,67.179z"/>
</g>
</svg>
