<?xml version="1.0" encoding="utf-8"?>
<!-- Generator: Adobe Illustrator 14.0.0, SVG Export Plug-In . SVG Version: 6.00 Build 43363)  -->
<svg version="1.2" baseProfile="tiny" id="Layer_1" xmlns="http://www.w3.org/2000/svg" xmlns:xlink="http://www.w3.org/1999/xlink"
	 x="0px" y="0px" width="91.535px" height="91.534px" viewBox="0 0 91.535 91.534" xml:space="preserve">
<circle fill="#DD3826" cx="45.767" cy="45.767" r="45.767"/>
<path fill="#F1F1F2" d="M46.558,63.94c1.278,1.246,3.578,1.33,4.941,0c1.364-1.332,1.474-3.189,0-4.822L40.036,47.163l11.463-11.955
	c1.474-1.633,1.364-3.49,0-4.822c-1.363-1.33-3.663-1.246-4.941,0c-1.279,1.248-13.773,14.367-13.773,14.367
	c-0.682,0.664-1.023,1.535-1.023,2.41c0,0.873,0.342,1.744,1.023,2.41C32.784,49.573,45.278,62.69,46.558,63.94z"/>
</svg>
