<?xml version="1.0" encoding="utf-8"?>
<!-- Generator: Adobe Illustrator 14.0.0, SVG Export Plug-In . SVG Version: 6.00 Build 43363)  -->
<svg version="1.2" baseProfile="tiny" id="Layer_1" xmlns="http://www.w3.org/2000/svg" xmlns:xlink="http://www.w3.org/1999/xlink"
	 x="0px" y="0px" width="91.535px" height="91.534px" viewBox="0 0 91.535 91.534" xml:space="preserve">
<path fill="#DD3826" d="M0,45.768c0,25.275,20.492,45.767,45.766,45.767c25.277,0,45.77-20.491,45.77-45.767
	C91.535,20.491,71.043,0,45.766,0C20.492,0,0,20.491,0,45.768z"/>
<g id="Your_Icon_2_">
	<path fill="#F1F1F2" d="M71.414,63.894c-0.514,1.287-1.781,2.204-3.248,2.204H23.965c-1.467,0-2.734-0.916-3.248-2.204
		c0.321-0.178,0.854-0.481,1.423-0.797l22.536-12.483c0.031-0.02,0.063-0.031,0.094-0.044c0.377,0.18,0.822,0.272,1.292,0.272
		s0.922-0.093,1.301-0.266c0.03,0.006,0.056,0.018,0.085,0.037L69.99,63.097C70.561,63.412,71.092,63.716,71.414,63.894z
		 M21.391,34.961c-0.377-0.253-0.612-0.568-0.687-0.915c-0.161,0.396-0.247,0.829-0.247,1.28V62.59c0,0.234,0.024,0.47,0.074,0.691
		c0.321-0.172,0.804-0.438,1.312-0.723l22.313-12.36L21.391,34.961z M71.425,34.046c-0.073,0.347-0.309,0.662-0.687,0.915
		L47.974,50.199l22.313,12.359c0.508,0.285,0.99,0.551,1.313,0.73c0.049-0.229,0.073-0.458,0.073-0.699V35.326
		C71.674,34.875,71.587,34.441,71.425,34.046z M63.756,37.176L46.828,48.504c-0.179,0.123-0.464,0.19-0.767,0.19
		s-0.587-0.067-0.767-0.19L27.837,36.817l17.111,11.444c0.563,0.384,1.664,0.384,2.228,0L63.756,37.176z M63.756,37.176
		L46.828,48.504c-0.179,0.123-0.464,0.19-0.767,0.19s-0.587-0.067-0.767-0.19L27.837,36.817l17.111,11.444
		c0.563,0.384,1.664,0.384,2.228,0L63.756,37.176z M66.452,35.376c-0.055,0.234-0.136,0.474-0.229,0.708
		c0.093-0.231,0.167-0.468,0.218-0.702L66.452,35.376z M66.117,36.341c-0.016,0.034-0.037,0.065-0.055,0.1
		c0.047-0.096,0.092-0.192,0.133-0.291C66.169,36.213,66.147,36.278,66.117,36.341z M65.852,36.823
		c0.078-0.123,0.145-0.253,0.211-0.384C65.998,36.571,65.929,36.698,65.852,36.823z M66.223,36.084
		c-0.009,0.022-0.017,0.043-0.027,0.065C66.206,36.127,66.214,36.106,66.223,36.084z M71.086,33.501
		c-0.044,0.137-0.137,0.272-0.26,0.402c-0.006,0-0.006,0-0.006,0.007c-0.075,0.067-0.162,0.136-0.254,0.197l-3.205,2.146
		c-0.805,0.539-2.116,1.417-2.921,1.955l-16.919,11.32c-0.402,0.273-0.935,0.402-1.46,0.402s-1.058-0.129-1.46-0.402L27.15,37.851
		c-0.805-0.538-2.117-1.417-2.92-1.955l-2.666-1.788c-0.1-0.062-0.18-0.13-0.254-0.197c0-0.007,0-0.007-0.006-0.007
		c-0.125-0.13-0.218-0.266-0.261-0.402c-0.073-0.204-0.062-0.408,0.037-0.594c0.099-0.204,0.304-0.396,0.601-0.538l1.756-0.841
		l0.676-0.322c0.277-0.137,0.605-0.297,0.959-0.464v-0.891c0-1.306,1.063-2.37,2.369-2.37h4.422l1.016-0.487l1.119-0.539
		c0.872-0.421,2.295-1.102,3.168-1.521l7.313-3.514c0.438-0.21,1.008-0.316,1.583-0.316s1.146,0.106,1.583,0.316l7.318,3.514
		c0.873,0.42,2.297,1.101,3.168,1.521l1.119,0.539l1.01,0.487h3.885c1.312,0,2.375,1.064,2.375,2.37v0.63
		c0.353,0.168,0.68,0.329,0.959,0.465l1.194,0.575l1.774,0.848c0.298,0.143,0.502,0.334,0.601,0.538
		C71.146,33.093,71.159,33.297,71.086,33.501z M34.723,27.481h22.686l-0.347-0.166l-2.63-1.263l-7.324-3.521
		c-0.248-0.116-0.638-0.191-1.046-0.191c-0.401,0-0.798,0.075-1.044,0.191l-7.319,3.521L34.723,27.481z M26.31,34.367
		c0,0.755,0.55,1.788,1.181,2.216l0.347,0.234l17.458,11.687c0.18,0.123,0.464,0.19,0.767,0.19c0.304,0,0.588-0.067,0.767-0.19
		l16.927-11.328l0.346-0.234c0.632-0.427,1.182-1.461,1.182-2.215v-4.875c0-0.625-0.507-1.133-1.138-1.133H27.441
		c-0.626,0-1.133,0.508-1.133,1.133L26.31,34.367L26.31,34.367z M25.14,35.017l0.013,0.006c-0.05-0.223-0.08-0.444-0.08-0.655
		v-2.252l-0.428,0.204l-2.053,0.99l2.332,1.559L25.14,35.017z M66.117,36.341c0.03-0.063,0.052-0.128,0.078-0.192
		c-0.04,0.099-0.086,0.196-0.133,0.291C66.08,36.406,66.102,36.375,66.117,36.341z M69.539,33.31l-2.592-1.25l-0.428-0.204v2.871
		c0,0.21-0.029,0.432-0.079,0.655c-0.051,0.234-0.124,0.471-0.218,0.702c0.094-0.234,0.175-0.474,0.229-0.709l0.217-0.148
		L69.539,33.31z"/>
</g>
</svg>
