<?xml version="1.0" encoding="utf-8"?>
<!-- Generator: Adobe Illustrator 14.0.0, SVG Export Plug-In . SVG Version: 6.00 Build 43363)  -->
<svg version="1.2" baseProfile="tiny" id="Layer_1" xmlns="http://www.w3.org/2000/svg" xmlns:xlink="http://www.w3.org/1999/xlink"
	 x="0px" y="0px" width="91.535px" height="91.534px" viewBox="0 0 91.535 91.534" xml:space="preserve">
<circle fill="#DD3826" cx="45.768" cy="45.768" r="45.767"/>
<path fill="#F1F1F2" d="M33.994,67.283l-11.648,2.842l-0.21-0.206l3.052-11.651l27.32-27.184c0.485-0.138,1.665-0.484,3.328-0.138
	L26.853,59.932l-0.832,3.052l3.328,3.328l3.118-0.833l1.39-1.316l0.137-3.121l-2.218-2.219l26.559-26.558
	c0.416,0.346,0.416,0.346,0.832,0.831c3.953,3.885,2.147,6.865,2.147,6.865L33.994,67.283z M66.031,35.246l-2.566,2.564
	c0,0,1.941-2.981-2.081-6.864c-3.537-3.535-6.864-2.012-6.864-2.012l2.705-2.704c2.427-2.496,6.656-2.496,9.013-0.139
	C69.009,28.66,68.665,32.611,66.031,35.246z"/>
</svg>
