<?xml version="1.0" encoding="utf-8"?>
<!-- Generator: Adobe Illustrator 14.0.0, SVG Export Plug-In . SVG Version: 6.00 Build 43363)  -->
<svg version="1.2" baseProfile="tiny" id="Layer_1" xmlns="http://www.w3.org/2000/svg" xmlns:xlink="http://www.w3.org/1999/xlink"
	 x="0px" y="0px" width="91.535px" height="91.534px" viewBox="0 0 91.535 91.534" xml:space="preserve">
<circle fill="#DD3826" cx="45.787" cy="45.768" r="45.767"/>
<path fill="#F1F1F2" d="M43.785,29.854c-1.311-1.277-3.667-1.365-5.066,0c-1.398,1.363-1.51,3.268,0,4.941l11.75,12.256
	l-11.75,12.254c-1.51,1.674-1.398,3.58,0,4.941c1.399,1.365,3.756,1.279,5.066,0c1.311-1.277,14.118-14.725,14.118-14.725
	c0.7-0.682,1.049-1.576,1.049-2.471c0-0.896-0.349-1.789-1.049-2.473C57.903,44.578,45.096,31.131,43.785,29.854z"/>
</svg>
