<?xml version="1.0" encoding="utf-8"?>
<!-- Generator: Adobe Illustrator 14.0.0, SVG Export Plug-In . SVG Version: 6.00 Build 43363)  -->
<!DOCTYPE svg PUBLIC "-//W3C//DTD SVG 1.1 Tiny//EN" "http://www.w3.org/Graphics/SVG/1.1/DTD/svg11-tiny.dtd">
<svg version="1.1" baseProfile="tiny" id="Layer_1" xmlns="http://www.w3.org/2000/svg" xmlns:xlink="http://www.w3.org/1999/xlink"
	 x="0px" y="0px" width="91.535px" height="91.534px" viewBox="0 0 91.535 91.534" xml:space="preserve">
<circle fill="#DD3826" cx="45.768" cy="45.768" r="45.767"/>
<path fill="#FFFFFF" d="M70.435,28.521c-1.95,1.155-4.109,1.996-6.407,2.448c-1.841-1.962-4.464-3.187-7.365-3.187
	c-5.572,0-10.091,4.518-10.091,10.09c0,0.791,0.089,1.562,0.261,2.299c-8.385-0.42-15.822-4.438-20.797-10.542
	c-0.869,1.491-1.367,3.224-1.367,5.073c0,3.5,1.781,6.588,4.489,8.397c-1.653-0.052-3.21-0.505-4.57-1.261
	c-0.001,0.042-0.001,0.083-0.001,0.126c0,4.89,3.479,8.968,8.094,9.894c-0.846,0.231-1.737,0.355-2.658,0.355
	c-0.649,0-1.281-0.063-1.898-0.182c1.284,4.009,5.012,6.926,9.427,7.007c-3.454,2.707-7.804,4.32-12.532,4.32
	c-0.814,0-1.617-0.048-2.406-0.143c4.465,2.864,9.768,4.535,15.468,4.535c18.559,0,28.708-15.376,28.708-28.71
	c0-0.437-0.009-0.872-0.029-1.306c1.972-1.422,3.682-3.199,5.035-5.223c-1.811,0.803-3.755,1.345-5.796,1.589
	C68.082,32.854,69.681,30.876,70.435,28.521z"/>
</svg>
