<?xml version="1.0" encoding="utf-8"?>
<!-- Generator: Adobe Illustrator 14.0.0, SVG Export Plug-In . SVG Version: 6.00 Build 43363)  -->
<svg version="1.2" baseProfile="tiny" id="Layer_1" xmlns="http://www.w3.org/2000/svg" xmlns:xlink="http://www.w3.org/1999/xlink"
	 x="0px" y="0px" width="87.279px" height="91.759px" viewBox="0 0 87.279 91.759" xml:space="preserve">
<g>
	<path fill="#DD3826" d="M85.318,59.199c-5.61,17.649-22.129,30.437-41.637,30.437c-19.613,0-36.207-12.926-41.729-30.724
		C1.277,59.272,0.623,59.615,0,59.938c5.938,18.46,23.248,31.82,43.682,31.82c20.158,0,38.244-13.289,43.598-31.557
		C86.789,59.782,86.017,59.76,85.318,59.199z"/>
	<path fill="#DD3826" d="M43.682,2.265c17.302,0,32.253,10.059,39.328,24.646c0.661-0.361,1.316-0.717,1.958-1.062
		C77.531,10.548,61.839,0,43.682,0C26.228,0,11.05,9.747,3.295,24.096c0.561,0.444,1.157,0.913,1.781,1.397
		C12.412,11.676,26.947,2.265,43.682,2.265z"/>
</g>
<path fill="#DD3826" d="M73.303,41.069c-0.359-0.58-0.992-0.935-1.676-0.935H60.47l-11.11-16.666
	c-0.502-0.754-1.521-0.958-2.275-0.455s-0.958,1.522-0.455,2.276l9.896,14.845H33.554l9.897-14.845
	c0.504-0.754,0.3-1.773-0.454-2.276c-0.755-0.503-1.773-0.299-2.276,0.455L29.609,40.135H18.452c-0.683,0-1.316,0.354-1.675,0.935
	c-0.359,0.58-0.392,1.306-0.086,1.916l11.816,23.634c0.334,0.668,1.016,1.089,1.762,1.089h29.542c0.746,0,1.428-0.422,1.762-1.089
	l11.817-23.634C73.694,42.375,73.662,41.65,73.303,41.069z M59.154,40.765c0.74,0,1.34,0.601,1.34,1.34c0,0.74-0.6,1.341-1.34,1.341
	c-0.739,0-1.34-0.601-1.34-1.341C57.814,41.365,58.415,40.765,59.154,40.765z M50.788,44.074h7.516l-0.738,2.954h-7.024
	L50.788,44.074z M50.377,48.998h6.695l-0.984,3.938h-6.039L50.377,48.998z M40.031,52.937h-6.039l-0.985-3.938h6.696L40.031,52.937z
	 M39.293,44.074l0.246,2.954h-7.024l-0.738-2.954H39.293z M30.976,40.714c0.74,0,1.341,0.601,1.341,1.341s-0.601,1.341-1.341,1.341
	s-1.341-0.601-1.341-1.341S30.235,40.714,30.976,40.714z M21.639,44.074h8.108l0.738,2.954h-7.369L21.639,44.074z M24.101,48.998
	h6.878l0.984,3.938h-5.892L24.101,48.998z M27.055,54.906h5.4l0.984,3.938h-4.415L27.055,54.906z M31.486,63.769l-1.477-2.954h3.922
	l0.738,2.954H31.486z M34.484,54.906h5.711l0.328,3.938h-5.055L34.484,54.906z M36.7,63.769l-0.739-2.954h4.727l0.246,2.954H36.7z
	 M47.169,63.769h-4.26l-0.246-2.954h4.753L47.169,63.769z M47.58,58.845h-5.081l-0.328-3.938h5.737L47.58,58.845z M48.072,52.937
	h-6.066l-0.328-3.938H48.4L48.072,52.937z M48.564,47.028h-7.051l-0.246-2.954h7.543L48.564,47.028z M53.38,63.769h-4.233
	l0.246-2.954h4.726L53.38,63.769z M49.557,58.845l0.328-3.938h5.711l-0.985,3.938H49.557z M58.594,63.769h-3.185l0.738-2.954h3.923
	L58.594,63.769z M61.056,58.845h-4.415l0.985-3.938h5.399L61.056,58.845z M64.01,52.937h-5.892l0.984-3.938h6.877L64.01,52.937z
	 M66.964,47.028h-7.369l0.739-2.954h8.107L66.964,47.028z"/>
</svg>
