<?xml version="1.0" encoding="utf-8"?>
<!-- Generator: Adobe Illustrator 14.0.0, SVG Export Plug-In . SVG Version: 6.00 Build 43363)  -->
<svg version="1.2" baseProfile="tiny" id="Layer_1" xmlns="http://www.w3.org/2000/svg" xmlns:xlink="http://www.w3.org/1999/xlink"
	 x="0px" y="0px" width="87.279px" height="91.759px" viewBox="0 0 87.279 91.759" xml:space="preserve">
<path fill="#DD3826" d="M48.738,47.082l8.157-9.324c1.387-1.385,1.387-3.633,0-5.02c-1.387-1.389-3.635-1.389-5.021,0l-7.844,8.963
	l-7.844-8.963c-1.386-1.389-3.634-1.389-5.021,0c-1.387,1.387-1.387,3.635,0,5.02l8.157,9.324l-8.157,9.322
	c-1.387,1.387-1.387,3.635-0.001,5.021s3.634,1.387,5.021,0l7.844-8.965l7.844,8.965c1.387,1.387,3.634,1.387,5.021,0
	c1.386-1.387,1.386-3.635-0.001-5.021L48.738,47.082z"/>
<g>
	<path fill="#DD3826" d="M85.319,59.199c-5.611,17.648-22.131,30.438-41.637,30.438c-19.615,0-36.209-12.928-41.73-30.725
		c-0.676,0.359-1.33,0.703-1.953,1.027c5.938,18.459,23.248,31.82,43.684,31.82c20.156,0,38.244-13.289,43.598-31.557
		C86.788,59.781,86.017,59.759,85.319,59.199z"/>
	<path fill="#DD3826" d="M43.683,2.265c17.301,0,32.252,10.057,39.326,24.646c0.662-0.361,1.318-0.717,1.959-1.063
		C77.53,10.548,61.839,0,43.683,0C26.228,0,11.05,9.748,3.294,24.095c0.561,0.443,1.158,0.912,1.781,1.398
		C12.413,11.675,26.946,2.265,43.683,2.265z"/>
</g>
</svg>
