<?xml version="1.0" encoding="utf-8"?>
<!-- Generator: Adobe Illustrator 14.0.0, SVG Export Plug-In . SVG Version: 6.00 Build 43363)  -->
<svg version="1.2" baseProfile="tiny" id="Layer_1" xmlns="http://www.w3.org/2000/svg" xmlns:xlink="http://www.w3.org/1999/xlink"
	 x="0px" y="0px" width="87.279px" height="91.759px" viewBox="0 0 87.279 91.759" xml:space="preserve">
<g>
	<path fill="#DD3826" d="M85.319,59.2c-5.611,17.648-22.131,30.437-41.637,30.437c-19.615,0-36.209-12.927-41.73-30.724
		c-0.676,0.359-1.33,0.703-1.953,1.026c5.938,18.46,23.248,31.82,43.684,31.82c20.156,0,38.244-13.289,43.598-31.557
		C86.788,59.782,86.017,59.761,85.319,59.2z"/>
	<path fill="#DD3826" d="M43.683,2.266c17.301,0,32.252,10.058,39.326,24.646c0.662-0.361,1.318-0.717,1.959-1.062
		C77.53,10.549,61.839,0,43.683,0C26.228,0,11.05,9.748,3.294,24.097c0.561,0.443,1.158,0.912,1.781,1.397
		C12.413,11.677,26.946,2.266,43.683,2.266z"/>
</g>
<g id="Your_Icon_2_">
	<path fill="#DD3826" d="M51.126,22.597c-4.84,0-6.901,3.436-6.901,3.436s-2.062-3.436-6.901-3.436
		c-4.092,0-7.527,3.436-7.527,7.528c0,9.41,14.429,16.939,14.429,16.939s14.429-7.529,14.429-16.939
		C58.653,26.032,55.218,22.597,51.126,22.597z M44.225,43.913c-4.149-2.463-11.681-8.109-11.681-13.788c0-2.261,2-4.78,4.779-4.78
		c4.152,0,6.215,4.123,6.901,4.123s2.749-4.123,6.901-4.123c2.719,0,4.779,2.52,4.779,4.78
		C55.905,35.806,48.372,41.452,44.225,43.913z"/>
	<path fill="#DD3826" d="M77.161,50.929c-0.672-1.341-2.441-2.037-4.438-2.037c-0.943,0-1.936,0.156-2.888,0.473
		c0,0-7.486,2.521-12.946,4.153c-1.898-0.698-4.057-0.722-6.305-0.742c-1.533-0.014-3.117-0.028-4.723-0.251
		c-1.205-0.168-4.145-1.042-6.296-1.717c-3.396-1.243-6.728-2.399-8.823-2.841c-0.975-0.206-2.153-0.293-3.461-0.293
		c-5.306,0-12.743,1.437-17.279,2.268c-2.328,2.997-0.329,12.346,3.127,13.91c0.342-0.006,6.452-1.701,9.232-1.701
		c0.279,0,0.523,0.016,0.727,0.054c7.271,1.347,20.492,4.526,24.443,4.526s24.258-8.672,26.665-9.877
		C78.147,54.88,78.147,52.904,77.161,50.929z M31.973,61.209c-3.097-0.653-6.021-1.27-8.383-1.707
		c-0.366-0.067-0.767-0.101-1.228-0.101c-2.379,0-6.297,0.568-8.498,1.098c-0.48-0.603-1.23-1.401-1.695-3.28
		c-0.535-2.16-0.229-3.66-0.021-4.622c4.436-0.816,10.587-2.174,15.135-2.174c1.186,0,2.158,0.079,2.894,0.233
		c1.582,0.334,12.97,4.152,15.181,4.461c1.783,0.246,3.582,0.393,5.201,0.407c2.721,0.025,7.256-0.269,7.297,2.279
		c0.014,0.892-0.889,1.479-2.992,1.723c-4.982,0.572-12.941-1.003-12.941-1.003c-3.234-0.658-5.467,0.258-6.127,0.544
		c0,0,3.248,1.136,5.695,1.581c0,0,6.473,1.311,11.371,1.371c0.51,0.006,1.031-0.023,1.533-0.051
		c-3.26,1.179-5.908,2.012-6.871,2.015C45.123,63.982,37.837,62.444,31.973,61.209z M75.079,53.047
		c-0.007,0.186-0.361,0.474-2.111,1.35c-1.628,0.814-7.543,3.334-13.301,5.586c0.381-0.414,1.581-2.862,0.147-4.473
		c3.417-1.052,7.356-2.348,10.892-3.538c0.651-0.217,1.35-0.32,2.019-0.331C74.692,51.608,75.085,52.862,75.079,53.047z"/>
</g>
</svg>
