<?xml version="1.0" encoding="utf-8"?>
<!-- Generator: Adobe Illustrator 14.0.0, SVG Export Plug-In . SVG Version: 6.00 Build 43363)  -->
<svg version="1.2" baseProfile="tiny" id="Layer_1" xmlns="http://www.w3.org/2000/svg" xmlns:xlink="http://www.w3.org/1999/xlink"
	 x="0px" y="0px" width="87.279px" height="91.759px" viewBox="0 0 87.279 91.759" xml:space="preserve">
<g>
	<path fill="#DD3826" d="M85.319,59.2c-5.611,17.648-22.131,30.437-41.637,30.437c-19.615,0-36.209-12.927-41.73-30.724
		c-0.676,0.359-1.33,0.703-1.953,1.026c5.938,18.46,23.248,31.82,43.684,31.82c20.156,0,38.244-13.289,43.598-31.557
		C86.788,59.782,86.017,59.76,85.319,59.2z"/>
	<path fill="#DD3826" d="M43.683,2.265c17.301,0,32.252,10.058,39.326,24.646c0.662-0.361,1.318-0.717,1.959-1.062
		C77.53,10.548,61.839,0,43.683,0C26.228,0,11.05,9.748,3.294,24.096c0.561,0.443,1.158,0.912,1.781,1.397
		C12.413,11.676,26.946,2.265,43.683,2.265z"/>
</g>
<path fill="#DD3826" d="M49.575,42.265c-0.861,0.861-2.023,1.357-3.193,1.357c-1.028,0-1.98-0.383-2.682-1.077L33.114,31.953
	l-0.959,0.958l3.656,3.656L23.96,48.42c-0.35,0.35-0.631,0.755-0.841,1.2c-0.327,0.694-0.463,1.46-0.397,2.22
	c-3.13-3.161-4.848-7.174-4.842-11.303c0.004-3.948,1.577-7.686,4.427-10.518c2.848-2.833,6.628-4.395,10.646-4.395
	c2.375,0,4.637,0.533,6.727,1.578c0.851,0.42,1.68,0.938,2.461,1.546l0.371,0.29l7.35,7.345
	C51.396,37.93,51.271,40.569,49.575,42.265z"/>
<path fill="#DD3826" d="M41.224,41.98L29.372,53.833c-0.555,0.549-1.305,0.856-2.095,0.856c-0.847,0-1.653-0.34-2.268-0.953
	s-0.952-1.415-0.952-2.267c0-0.797,0.3-1.541,0.855-2.096l11.852-11.852L41.224,41.98z"/>
<path fill="#DD3826" d="M70.383,40.538c0.005,4.156-1.733,8.189-4.9,11.361c-1.884,1.88-4.055,4.05-6.274,6.269L46.403,70.865
	c-0.555,0.555-1.298,0.856-2.095,0.856c-0.851,0-1.658-0.339-2.267-0.953c-0.598-0.599-0.932-1.384-0.948-2.213
	c-0.017-0.813,0.285-1.578,0.851-2.149l12.449-12.454l-1.162-1.164L40.782,65.244c-0.555,0.549-1.303,0.855-2.096,0.855
	c-0.845,0-1.652-0.339-2.268-0.951c-0.612-0.615-0.952-1.417-0.952-2.268c0-0.798,0.302-1.541,0.856-2.096l12.449-12.456
	l-1.324-1.324l-12.456,12.45c-0.554,0.554-1.298,0.856-2.094,0.856c-0.851,0-1.659-0.34-2.269-0.952
	c-0.597-0.6-0.931-1.385-0.947-2.214c-0.021-0.813,0.285-1.578,0.852-2.149l11.852-11.852l0.36,0.361
	c0.959,0.953,2.251,1.476,3.635,1.476c1.514,0,3.027-0.642,4.153-1.755c2.218-2.23,2.347-5.726,0.279-7.793l-5.772-5.773
	c2.8-2.605,6.429-4.033,10.269-4.033c4.012,0,7.793,1.563,10.646,4.395C68.806,32.852,70.378,36.589,70.383,40.538z"/>
</svg>
