<?xml version="1.0" encoding="utf-8"?>
<!-- Generator: Adobe Illustrator 14.0.0, SVG Export Plug-In . SVG Version: 6.00 Build 43363)  -->
<svg version="1.2" baseProfile="tiny" id="Layer_1" xmlns="http://www.w3.org/2000/svg" xmlns:xlink="http://www.w3.org/1999/xlink"
	 x="0px" y="0px" width="87.279px" height="91.759px" viewBox="0 0 87.279 91.759" xml:space="preserve">
<g>
	<path fill="#DD3826" d="M85.319,59.2c-5.611,17.648-22.13,30.437-41.637,30.437c-19.614,0-36.209-12.927-41.729-30.724
		C1.277,59.272,0.623,59.616,0,59.939c5.938,18.46,23.248,31.82,43.683,31.82c20.157,0,38.244-13.289,43.598-31.557
		C86.789,59.782,86.016,59.76,85.319,59.2z"/>
	<path fill="#DD3826" d="M43.682,2.265c17.301,0,32.252,10.058,39.327,24.646c0.662-0.361,1.317-0.717,1.958-1.062
		C77.531,10.548,61.839,0,43.682,0C26.227,0,11.049,9.748,3.294,24.096c0.561,0.443,1.157,0.912,1.781,1.397
		C12.413,11.676,26.947,2.265,43.682,2.265z"/>
</g>
<path fill="#DD3826" d="M47.912,30.747h7.441v-8.15h-7.441c-6.157,0-10.643,5.257-10.643,11.722v4.507h-7.963v7.658h7.963V69.48
	h8.782V46.483h9.302v-7.658h-9.302v-5.373C46.051,31.904,47.033,30.747,47.912,30.747z"/>
</svg>
