<?xml version="1.0" encoding="utf-8"?>
<!-- Generator: Adobe Illustrator 14.0.0, SVG Export Plug-In . SVG Version: 6.00 Build 43363)  -->
<svg version="1.2" baseProfile="tiny" id="Layer_1" xmlns="http://www.w3.org/2000/svg" xmlns:xlink="http://www.w3.org/1999/xlink"
	 x="0px" y="0px" width="87.279px" height="91.759px" viewBox="0 0 87.279 91.759" xml:space="preserve">
<g>
	<path fill="#DD3826" d="M85.319,59.201c-5.611,17.648-22.13,30.436-41.637,30.436c-19.614,0-36.209-12.926-41.729-30.723
		C1.277,59.273,0.623,59.617,0,59.939c5.938,18.461,23.248,31.82,43.683,31.82c20.157,0,38.244-13.289,43.598-31.557
		C86.789,59.783,86.016,59.761,85.319,59.201z"/>
	<path fill="#DD3826" d="M43.682,2.265c17.301,0,32.252,10.059,39.327,24.646c0.662-0.361,1.317-0.717,1.958-1.061
		C77.531,10.548,61.839,0,43.682,0C26.227,0,11.049,9.748,3.294,24.097c0.561,0.443,1.157,0.912,1.781,1.396
		C12.413,11.677,26.947,2.265,43.682,2.265z"/>
</g>
<g>
	<path fill="#DD3826" d="M42.477,25.669c0.367-2.568,2.716-4.631,5.284-4.631c2.582,0,4.337,2.063,3.975,4.631
		c-0.372,2.568-2.72,4.629-5.289,4.629C43.871,30.298,42.109,28.238,42.477,25.669z"/>
	<path fill="#DD3826" d="M51.658,64.359c-1.683,2.795-5.064,3.748-7.787,3.748c-4.404,0-6.611-2.201-6.031-6.244l3.157-22.783
		c0.079-0.582-0.361-1.094-0.943-1.094h-3.455c-0.439,0-0.66-0.295-0.593-0.736c0-0.445,0.371-0.74,0.809-0.74h11.907
		c0.44,0,0.734,0.295,0.655,0.74l-3.592,25.715c-0.299,2.273,0.294,2.941,1.757,2.941c1.325,0,2.501-1.033,3.167-2.061
		c0.209-0.293,0.516-0.441,0.881-0.293C51.81,63.697,51.883,64.064,51.658,64.359z"/>
</g>
</svg>
