<?xml version="1.0" encoding="utf-8"?>
<!-- Generator: Adobe Illustrator 14.0.0, SVG Export Plug-In . SVG Version: 6.00 Build 43363)  -->
<svg version="1.2" baseProfile="tiny" id="Layer_1" xmlns="http://www.w3.org/2000/svg" xmlns:xlink="http://www.w3.org/1999/xlink"
	 x="0px" y="0px" width="87.279px" height="91.759px" viewBox="0 0 87.279 91.759" xml:space="preserve">
<path fill="#DD3826" d="M45.612,63.354c1.278,1.246,3.578,1.33,4.941,0c1.364-1.332,1.474-3.189,0-4.822L39.091,46.577
	l11.463-11.955c1.474-1.633,1.364-3.49,0-4.822c-1.363-1.33-3.663-1.246-4.941,0c-1.279,1.248-13.773,14.367-13.773,14.367
	c-0.682,0.664-1.023,1.535-1.023,2.41c0,0.873,0.342,1.744,1.023,2.41C31.839,48.987,44.333,62.104,45.612,63.354z"/>
<g>
	<path fill="#DD3826" d="M85.319,59.198c-5.611,17.648-22.13,30.438-41.637,30.438c-19.614,0-36.209-12.928-41.729-30.725
		C1.277,59.271,0.623,59.614,0,59.938c5.938,18.459,23.248,31.82,43.683,31.82c20.157,0,38.244-13.289,43.598-31.557
		C86.789,59.78,86.017,59.759,85.319,59.198z"/>
	<path fill="#DD3826" d="M43.683,2.265c17.301,0,32.252,10.057,39.327,24.646c0.662-0.361,1.317-0.717,1.958-1.063
		C77.531,10.548,61.84-0.001,43.683-0.001c-17.455,0-32.633,9.748-40.388,24.096c0.561,0.443,1.157,0.912,1.781,1.398
		C12.413,11.675,26.947,2.265,43.683,2.265z"/>
</g>
</svg>
