<?xml version="1.0" encoding="utf-8"?>
<!-- Generator: Adobe Illustrator 14.0.0, SVG Export Plug-In . SVG Version: 6.00 Build 43363)  -->
<svg version="1.2" baseProfile="tiny" id="Layer_1" xmlns="http://www.w3.org/2000/svg" xmlns:xlink="http://www.w3.org/1999/xlink"
	 x="0px" y="0px" width="87.279px" height="91.759px" viewBox="0 0 87.279 91.759" xml:space="preserve">
<g>
	<path fill="#DD3826" d="M85.319,59.199c-5.611,17.648-22.131,30.438-41.637,30.438c-19.615,0-36.209-12.928-41.73-30.725
		c-0.676,0.359-1.33,0.703-1.953,1.027c5.938,18.459,23.248,31.82,43.684,31.82c20.156,0,38.244-13.289,43.598-31.557
		C86.788,59.781,86.017,59.759,85.319,59.199z"/>
	<path fill="#DD3826" d="M43.683,2.265c17.301,0,32.252,10.057,39.326,24.646c0.662-0.361,1.318-0.717,1.959-1.063
		C77.53,10.548,61.839,0,43.683,0C26.228,0,11.05,9.748,3.294,24.095c0.561,0.443,1.158,0.912,1.781,1.398
		C12.413,11.675,26.946,2.265,43.683,2.265z"/>
</g>
<g id="Your_Icon_1_">
	<path fill="#DD3826" d="M69.595,63.386c-0.514,1.287-1.781,2.203-3.248,2.203H22.146c-1.467,0-2.734-0.916-3.248-2.203
		c0.321-0.178,0.854-0.482,1.423-0.797l22.536-12.484c0.031-0.02,0.063-0.031,0.094-0.043c0.377,0.18,0.822,0.271,1.292,0.271
		s0.922-0.092,1.301-0.266c0.03,0.006,0.056,0.018,0.085,0.037l22.543,12.484C68.741,62.904,69.272,63.208,69.595,63.386z
		 M19.571,34.453c-0.377-0.252-0.612-0.568-0.687-0.914c-0.161,0.395-0.247,0.828-0.247,1.279v27.264
		c0,0.234,0.024,0.471,0.074,0.691c0.321-0.172,0.804-0.438,1.312-0.723l22.313-12.359L19.571,34.453z M69.605,33.539
		c-0.073,0.346-0.309,0.662-0.687,0.914L46.154,49.691L68.468,62.05c0.508,0.285,0.99,0.551,1.313,0.73
		c0.049-0.229,0.073-0.457,0.073-0.699V34.818C69.854,34.367,69.768,33.933,69.605,33.539z M61.937,36.667L45.009,47.996
		c-0.179,0.123-0.464,0.191-0.767,0.191s-0.587-0.068-0.767-0.191L26.018,36.31l17.111,11.443c0.563,0.385,1.664,0.385,2.228,0
		L61.937,36.667z M61.937,36.667L45.009,47.996c-0.179,0.123-0.464,0.191-0.767,0.191s-0.587-0.068-0.767-0.191L26.018,36.31
		l17.111,11.443c0.563,0.385,1.664,0.385,2.228,0L61.937,36.667z M64.633,34.869c-0.055,0.234-0.136,0.473-0.229,0.707
		c0.093-0.23,0.167-0.467,0.218-0.701L64.633,34.869z M64.298,35.833c-0.016,0.033-0.037,0.064-0.055,0.1
		c0.047-0.096,0.092-0.193,0.133-0.291C64.35,35.705,64.328,35.771,64.298,35.833z M64.032,36.316
		c0.078-0.123,0.145-0.254,0.211-0.385C64.179,36.064,64.109,36.191,64.032,36.316z M64.403,35.576
		c-0.009,0.023-0.017,0.043-0.027,0.066C64.387,35.619,64.395,35.599,64.403,35.576z M69.267,32.994
		c-0.044,0.137-0.137,0.271-0.26,0.402c-0.006,0-0.006,0-0.006,0.006c-0.075,0.068-0.162,0.137-0.254,0.197l-3.205,2.146
		c-0.805,0.539-2.116,1.418-2.921,1.955l-16.919,11.32c-0.402,0.273-0.935,0.402-1.46,0.402s-1.058-0.129-1.46-0.402L25.331,37.343
		c-0.805-0.539-2.117-1.418-2.92-1.955l-2.666-1.789c-0.1-0.061-0.18-0.129-0.254-0.197c0-0.006,0-0.006-0.006-0.006
		c-0.125-0.131-0.218-0.266-0.261-0.402c-0.073-0.205-0.062-0.408,0.037-0.594c0.099-0.205,0.304-0.396,0.601-0.539l1.756-0.84
		l0.676-0.322c0.277-0.137,0.605-0.297,0.959-0.465v-0.891c0-1.305,1.063-2.369,2.369-2.369h4.422l1.016-0.488l1.119-0.539
		c0.872-0.42,2.295-1.102,3.168-1.521l7.313-3.514c0.438-0.209,1.008-0.316,1.583-0.316s1.146,0.107,1.583,0.316l7.318,3.514
		c0.873,0.42,2.297,1.102,3.168,1.521l1.119,0.539l1.01,0.488h3.885c1.312,0,2.375,1.064,2.375,2.369v0.631
		c0.353,0.168,0.68,0.328,0.959,0.465l1.194,0.574l1.774,0.848c0.298,0.143,0.502,0.334,0.601,0.539
		C69.327,32.585,69.34,32.789,69.267,32.994z M32.903,26.974h22.686l-0.347-0.166l-2.63-1.264l-7.324-3.52
		c-0.248-0.117-0.638-0.191-1.046-0.191c-0.401,0-0.798,0.074-1.044,0.191l-7.319,3.52L32.903,26.974z M24.49,33.859
		c0,0.756,0.55,1.789,1.181,2.217l0.347,0.234l17.458,11.686c0.18,0.123,0.464,0.191,0.767,0.191c0.304,0,0.588-0.068,0.767-0.191
		l16.927-11.328l0.346-0.234c0.632-0.426,1.182-1.461,1.182-2.215v-4.875c0-0.625-0.507-1.133-1.138-1.133H25.622
		c-0.626,0-1.133,0.508-1.133,1.133L24.49,33.859L24.49,33.859z M23.32,34.509l0.013,0.006c-0.05-0.223-0.08-0.445-0.08-0.656
		v-2.252l-0.428,0.205l-2.053,0.99l2.332,1.559L23.32,34.509z M64.298,35.833c0.03-0.063,0.052-0.129,0.078-0.193
		c-0.04,0.1-0.086,0.197-0.133,0.291C64.261,35.898,64.282,35.867,64.298,35.833z M67.72,32.802l-2.592-1.25L64.7,31.347v2.871
		c0,0.211-0.029,0.432-0.079,0.656c-0.051,0.234-0.124,0.471-0.218,0.701c0.094-0.234,0.175-0.473,0.229-0.709l0.217-0.148
		L67.72,32.802z"/>
</g>
</svg>
