<?xml version="1.0" encoding="utf-8"?>
<!-- Generator: Adobe Illustrator 14.0.0, SVG Export Plug-In . SVG Version: 6.00 Build 43363)  -->
<!DOCTYPE svg PUBLIC "-//W3C//DTD SVG 1.1 Tiny//EN" "http://www.w3.org/Graphics/SVG/1.1/DTD/svg11-tiny.dtd">
<svg version="1.1" baseProfile="tiny" id="Layer_1" xmlns="http://www.w3.org/2000/svg" xmlns:xlink="http://www.w3.org/1999/xlink"
	 x="0px" y="0px" width="144.982px" height="144.982px" viewBox="0 0 144.982 144.982" xml:space="preserve">
<path fill="#DD3826" d="M72.491,0C32.455,0,0,32.455,0,72.491c0,40.035,32.455,72.491,72.491,72.491s72.491-32.456,72.491-72.491
	C144.982,32.455,112.527,0,72.491,0z M72.491,142.806c-38.834,0-70.314-31.481-70.314-70.313c0-38.834,31.48-70.315,70.314-70.315
	c38.833,0,70.313,31.481,70.313,70.315C142.805,111.324,111.324,142.806,72.491,142.806z"/>
<rect x="54.879" y="58.727" fill="#DD3826" width="23.166" height="3"/>
<rect x="54.879" y="67.06" fill="#DD3826" width="36.166" height="3"/>
<rect x="54.879" y="74.894" fill="#DD3826" width="36.166" height="3"/>
<rect x="54.879" y="83.061" fill="#DD3826" width="36.166" height="3"/>
</svg>
