<?xml version="1.0" encoding="utf-8"?>
<!-- Generator: Adobe Illustrator 14.0.0, SVG Export Plug-In . SVG Version: 6.00 Build 43363)  -->
<svg version="1.2" baseProfile="tiny" id="Layer_1" xmlns="http://www.w3.org/2000/svg" xmlns:xlink="http://www.w3.org/1999/xlink"
	 x="0px" y="0px" width="87.279px" height="91.759px" viewBox="0 0 87.279 91.759" xml:space="preserve">
<path fill="#DD3826" d="M42.719,30.528c-1.311-1.279-3.666-1.365-5.066,0c-1.398,1.363-1.51,3.268,0,4.939l11.75,12.256
	l-11.75,12.256c-1.51,1.674-1.398,3.578,0,4.941c1.4,1.365,3.756,1.277,5.066,0c1.311-1.279,14.119-14.727,14.119-14.727
	c0.699-0.682,1.049-1.576,1.049-2.471s-0.35-1.789-1.049-2.471C56.838,45.253,44.029,31.806,42.719,30.528z"/>
<g>
	<path fill="#DD3826" d="M85.32,59.284c-5.611,17.648-22.131,30.438-41.637,30.438c-19.615,0-36.209-12.928-41.73-30.725
		C1.277,59.356,0.623,59.7,0,60.024c5.938,18.459,23.248,31.82,43.684,31.82c20.156,0,38.244-13.289,43.598-31.557
		C86.789,59.866,86.018,59.845,85.32,59.284z"/>
	<path fill="#DD3826" d="M43.684,2.351c17.301,0,32.252,10.057,39.326,24.646c0.662-0.361,1.318-0.717,1.959-1.063
		C77.531,10.634,61.84,0.085,43.684,0.085c-17.455,0-32.633,9.748-40.389,24.096c0.561,0.443,1.158,0.912,1.781,1.398
		C12.414,11.761,26.947,2.351,43.684,2.351z"/>
</g>
</svg>
