<?xml version="1.0" encoding="utf-8"?>
<!-- Generator: Adobe Illustrator 14.0.0, SVG Export Plug-In . SVG Version: 6.00 Build 43363)  -->
<svg version="1.2" baseProfile="tiny" id="Layer_1" xmlns="http://www.w3.org/2000/svg" xmlns:xlink="http://www.w3.org/1999/xlink"
	 x="0px" y="0px" width="87.279px" height="91.759px" viewBox="0 0 87.279 91.759" xml:space="preserve">
<g>
	<path fill="#DD3826" d="M85.319,59.2c-5.611,17.648-22.13,30.437-41.637,30.437c-19.614,0-36.209-12.927-41.729-30.724
		C1.277,59.272,0.623,59.616,0,59.939c5.938,18.46,23.248,31.82,43.683,31.82c20.157,0,38.244-13.289,43.598-31.557
		C86.789,59.782,86.016,59.76,85.319,59.2z"/>
	<path fill="#DD3826" d="M43.682,2.265c17.301,0,32.252,10.058,39.327,24.646c0.662-0.361,1.317-0.717,1.958-1.062
		C77.531,10.548,61.839,0,43.682,0C26.227,0,11.049,9.748,3.294,24.096c0.561,0.443,1.157,0.912,1.781,1.397
		C12.413,11.676,26.947,2.265,43.682,2.265z"/>
</g>
<path fill="#DD3826" d="M67.873,27.32c-1.95,1.155-4.109,1.996-6.407,2.448c-1.841-1.962-4.464-3.187-7.365-3.187
	c-5.572,0-10.091,4.518-10.091,10.09c0,0.791,0.089,1.562,0.261,2.299c-8.385-0.42-15.822-4.438-20.797-10.542
	c-0.869,1.491-1.367,3.224-1.367,5.073c0,3.5,1.781,6.588,4.489,8.397c-1.653-0.052-3.21-0.505-4.57-1.261
	c-0.001,0.042-0.001,0.083-0.001,0.126c0,4.89,3.479,8.968,8.094,9.894c-0.846,0.231-1.737,0.355-2.658,0.355
	c-0.649,0-1.281-0.063-1.898-0.182c1.284,4.009,5.012,6.926,9.427,7.007c-3.454,2.707-7.804,4.32-12.532,4.32
	c-0.814,0-1.617-0.048-2.406-0.143c4.465,2.864,9.768,4.535,15.468,4.535c18.559,0,28.708-15.376,28.708-28.71
	c0-0.437-0.009-0.872-0.029-1.306c1.972-1.422,3.682-3.199,5.035-5.223c-1.811,0.803-3.755,1.345-5.796,1.589
	C65.519,31.654,67.119,29.675,67.873,27.32z"/>
</svg>
